<svg xmlns="http://www.w3.org/2000/svg" viewBox="0 0 640 400" width="640" height="400" role="img" aria-label="Archimedean spiral — pen-draw" aria-describedby="glyph-desc"><desc id="glyph-desc">Archimedean spiral — pen-draw</desc><metadata id="glyph-provenance"><![CDATA[{"format":"glyph-provenance/1","specHash":"94fc23e94e86b44bb604968a22fa7d7c881fb754d566913ee09d79dbbba4d7f6","dataHash":"4c0ad85e9cf8539141b93fe53913fb772b0271cae169a8aa4a32070722125dc3","libraryVersion":"0.0.0","rowCount":200,"scaleDigest":"9fe4833cbf81f0fced1fc96dc51751cb11fa95e55ef566475b94cf6413450f89"}]]></metadata><rect x="0" y="0" width="640" height="400" fill="#ffffff"/><text x="320" y="16" font-family="system-ui, -apple-system, sans-serif" font-size="14" fill="#1a1a1a" text-anchor="middle" dominant-baseline="middle">Archimedean spiral — pen-draw</text><line x1="56" y1="352" x2="616" y2="352" stroke="#e6e6e6" stroke-width="1"/><line x1="56" y1="297.33333333" x2="616" y2="297.33333333" stroke="#e6e6e6" stroke-width="1"/><line x1="56" y1="242.66666667" x2="616" y2="242.66666667" stroke="#e6e6e6" stroke-width="1"/><line x1="56" y1="188" x2="616" y2="188" stroke="#e6e6e6" stroke-width="1"/><line x1="56" y1="133.33333333" x2="616" y2="133.33333333" stroke="#e6e6e6" stroke-width="1"/><line x1="56" y1="78.66666667" x2="616" y2="78.66666667" stroke="#e6e6e6" stroke-width="1"/><line x1="56" y1="24" x2="616" y2="24" stroke="#e6e6e6" stroke-width="1"/><g class="glyph-marks glyph-draw-in"><path d="M 296 188 L 297.24638085 187.89243685 L 298.43367047 187.57313817 L 299.50433075 187.05219603 L 300.40389551 186.34616506 L 301.08242152 185.47766997 L 301.49583936 184.47486773 L 301.60717408 183.37077577 L 301.38760808 182.20248026 L 300.81736188 181.01024131 L 299.88637214 179.8365141 L 298.59475062 178.72490673 L 296.95301191 177.71909713 L 294.98206285 176.86173235 L 292.71295135 176.19333404 L 290.18637728 175.75123409 L 287.4519732 175.56856383 L 284.56736746 175.67331947 L 281.59704688 176.08752495 L 278.61104048 176.8265116 L 275.68344993 177.89833202 L 272.89085534 179.30332256 L 270.31062858 181.03382654 L 268.01918797 183.07408648 L 266.09023038 185.40031099 L 264.59297724 187.98091783 L 263.59047174 190.77695166 L 263.13796341 193.74267084 L 263.28141555 196.82629485 L 264.0561687 199.97089973 L 265.48579099 203.11544647 L 267.58114268 206.19592398 L 270.33967866 209.14658567 L 273.74500815 211.90125679 L 277.76672605 214.3946874 L 282.36052547 216.56392493 L 287.46859527 218.34967922 L 293.02030125 219.69765265 L 298.93314375 220.55980811 L 305.11397914 220.89554848 L 311.46048705 220.67278211 L 317.86286039 219.86885114 L 324.20569012 218.47130104 L 330.3700128 216.47847295 L 336.23548502 213.89990317 L 341.68264552 210.75651764 L 346.59522396 207.08061285 L 350.86245281 202.91561868 L 354.38133877 198.31564253 L 357.05884927 193.34479842 L 358.81397103 188.07632864 L 359.5795987 182.59152983 L 359.30421417 176.97849912 L 357.95332042 171.33071951 L 355.5105974 165.74550755 L 351.97875209 160.32234855 L 347.38004003 155.16114809 L 341.75644112 150.36042992 L 335.16947879 146.01551233 L 327.69967762 142.21669609 L 319.44566135 139.04749723 L 310.52289963 136.5829581 L 301.06211861 134.88806911 L 291.20739669 134.01633228 L 281.11397303 134.00849574 L 270.94580208 134.89148575 L 260.87289274 136.67755988 L 251.06847517 139.36370123 L 241.70604243 142.93126981 L 232.95631708 147.34592284 L 224.98419536 152.55781103 L 217.94572284 158.50205328 L 211.98515579 165.09948713 L 207.23216237 172.25768754 L 203.7992158 179.8722414 L 201.77922967 187.82826068 L 201.24348175 196.00211239 L 202.23986898 204.26333939 L 204.79153067 212.47674222 L 208.89587153 220.50458867 L 214.52400957 228.20891514 L 221.62066692 235.4538813 L 230.10451418 242.10813831 L 239.86897115 248.04716945 L 250.78345896 253.15556222 L 262.69509058 257.32917106 L 275.43077881 260.47713134 L 288.79973337 262.5236868 L 302.59631132 263.40979565 L 316.60317838 263.0944833 L 330.59473249 261.5559139 L 344.34073587 258.79215701 L 357.61009692 254.82163069 L 370.17474008 249.68320748 L 381.81349907 243.43597541 L 392.31596727 236.15865192 L 401.4862391 227.9486544 L 409.14647644 218.92083717 L 415.14023653 209.20591051 L 419.33550054 198.94856303 L 421.62734617 188.30531406 L 421.94021299 177.4421279 L 420.22971495 166.53182614 L 416.48396185 155.75133853 L 410.72435912 145.27883599 L 403.00586361 135.29079226 L 393.416682 125.95902257 L 382.07740777 117.44774876 L 369.13960191 109.91074074 L 354.78383225 103.48858366 L 339.21719549 98.30611856 L 322.67035522 94.47010243 L 305.39413789 92.0671304 L 287.65573662 91.1618589 L 269.73458033 91.79556445 L 251.917932 93.98506742 L 234.49628525 97.72204432 L 217.75863328 102.97274629 L 201.98768691 109.67813453 L 187.45512065 117.75443706 L 174.41692667 127.09412357 L 163.10895536 137.56728881 L 153.74271965 149.02342736 L 146.5015366 161.29357618 L 141.53707557 174.19279487 L 138.96637595 187.52294734 L 138.86939103 201.07574313 L 141.28710628 214.63599184 L 146.2202714 227.98501969 L 153.62877607 240.90419414 L 163.43168881 253.17849952 L 175.50796772 264.60010561 L 189.69784076 274.97186981 L 205.80484222 284.11071424 L 223.59848076 291.85082032 L 242.8175038 298.04658558 L 263.1737126 302.57529063 L 284.35627267 305.33942849 L 306.03645517 306.26865327 L 327.87273722 305.32131098 L 349.51618178 302.48552182 L 370.61601253 297.77978995 L 390.82529462 291.25312472 L 409.8066294 282.98466477 L 427.23776974 273.08280472 L 442.81706279 261.68383237 L 456.26862869 248.95009233 L 467.34718683 235.06770031 L 475.84244617 220.24383948 L 481.58298202 204.70367824 L 484.4395295 188.68695483 L 484.32763225 172.44428063 L 481.20959509 156.23321907 L 475.09570018 140.31420158 L 466.04465741 124.94634522 L 454.16327265 110.38323921 L 439.60532933 96.86876878 L 422.56969242 84.63304502 L 403.29765618 73.88850843 L 382.0695699 64.82627177 L 359.20078813 57.61276484 L 335.03700334 52.38673941 L 309.94902986 49.2566873 L 284.32711755 48.29871868 L 258.57488247 49.55494047 L 233.10294876 53.0323669 L 208.32240211 58.70238636 L 184.63815889 66.50079942 L 162.44235811 76.32843402 L 142.10788376 88.05233432 L 123.98212434 101.50751045 L 108.38107379 116.49922697 L 95.5838732 132.80579887 L 85.82788718 150.18185549 L 79.30440052 168.36202433 L 76.15501197 187.06497975 L 76.46879114 205.99779478 L 80.2802532 224.86052882 L 87.56819286 243.35097922 L 98.25540593 261.16952171 L 112.20931255 278.02396192 L 129.24348151 293.63431967 L 149.12004057 307.73746775 L 171.55294324 320.09154848 L 196.21204796 330.48009417 L 222.72795224 338.71578187 L 250.69751141 344.64375751 L 279.68995973 348.14447146 L 309.25354106 349.13597443 L 338.92254717 347.57563113 L 368.22465387 343.46121791 L 396.68843961 336.83138055 L 423.85096672 327.76543811 L 449.26530349 316.38252964 L 472.50786495 302.8401107 L 493.185452 287.33181775 L 510.94187219 270.08472844 L 525.46403121 251.35605601 L 536.48739136 231.42932587 L 543.80070297 210.61009064" fill="none" stroke="#4c78a8" stroke-width="1.5" stroke-dasharray="2677.1149787" stroke-dashoffset="2677.1149787"><animate attributeName="stroke-dashoffset" from="2677.1149787" to="0" dur="3000ms" begin="0s" fill="freeze" calcMode="spline" keyTimes="0;1" keySplines="0.42 0 0.58 1"/></path></g><line x1="56" y1="352" x2="616" y2="352" stroke="#999999" stroke-width="1"/><line x1="56" y1="352" x2="56" y2="356" stroke="#999999" stroke-width="1"/><text x="56" y="368" font-family="system-ui, -apple-system, sans-serif" font-size="11" fill="#333333" text-anchor="middle" dominant-baseline="hanging">-3</text><line x1="136" y1="352" x2="136" y2="356" stroke="#999999" stroke-width="1"/><text x="136" y="368" font-family="system-ui, -apple-system, sans-serif" font-size="11" fill="#333333" text-anchor="middle" dominant-baseline="hanging">-2</text><line x1="216" y1="352" x2="216" y2="356" stroke="#999999" stroke-width="1"/><text x="216" y="368" font-family="system-ui, -apple-system, sans-serif" font-size="11" fill="#333333" text-anchor="middle" dominant-baseline="hanging">-1</text><line x1="296" y1="352" x2="296" y2="356" stroke="#999999" stroke-width="1"/><text x="296" y="368" font-family="system-ui, -apple-system, sans-serif" font-size="11" fill="#333333" text-anchor="middle" dominant-baseline="hanging">0</text><line x1="376" y1="352" x2="376" y2="356" stroke="#999999" stroke-width="1"/><text x="376" y="368" font-family="system-ui, -apple-system, sans-serif" font-size="11" fill="#333333" text-anchor="middle" dominant-baseline="hanging">1</text><line x1="456" y1="352" x2="456" y2="356" stroke="#999999" stroke-width="1"/><text x="456" y="368" font-family="system-ui, -apple-system, sans-serif" font-size="11" fill="#333333" text-anchor="middle" dominant-baseline="hanging">2</text><line x1="536" y1="352" x2="536" y2="356" stroke="#999999" stroke-width="1"/><text x="536" y="368" font-family="system-ui, -apple-system, sans-serif" font-size="11" fill="#333333" text-anchor="middle" dominant-baseline="hanging">3</text><line x1="616" y1="352" x2="616" y2="356" stroke="#999999" stroke-width="1"/><text x="616" y="368" font-family="system-ui, -apple-system, sans-serif" font-size="11" fill="#333333" text-anchor="middle" dominant-baseline="hanging">4</text><text x="336" y="384" font-family="system-ui, -apple-system, sans-serif" font-size="12" fill="#333333" text-anchor="middle" dominant-baseline="hanging">x</text><line x1="56" y1="24" x2="56" y2="352" stroke="#999999" stroke-width="1"/><line x1="52" y1="352" x2="56" y2="352" stroke="#999999" stroke-width="1"/><text x="48" y="352" font-family="system-ui, -apple-system, sans-serif" font-size="11" fill="#333333" text-anchor="end" dominant-baseline="middle">-3</text><line x1="52" y1="297.33333333" x2="56" y2="297.33333333" stroke="#999999" stroke-width="1"/><text x="48" y="297.33333333" font-family="system-ui, -apple-system, sans-serif" font-size="11" fill="#333333" text-anchor="end" dominant-baseline="middle">-2</text><line x1="52" y1="242.66666667" x2="56" y2="242.66666667" stroke="#999999" stroke-width="1"/><text x="48" y="242.66666667" font-family="system-ui, -apple-system, sans-serif" font-size="11" fill="#333333" text-anchor="end" dominant-baseline="middle">-1</text><line x1="52" y1="188" x2="56" y2="188" stroke="#999999" stroke-width="1"/><text x="48" y="188" font-family="system-ui, -apple-system, sans-serif" font-size="11" fill="#333333" text-anchor="end" dominant-baseline="middle">0</text><line x1="52" y1="133.33333333" x2="56" y2="133.33333333" stroke="#999999" stroke-width="1"/><text x="48" y="133.33333333" font-family="system-ui, -apple-system, sans-serif" font-size="11" fill="#333333" text-anchor="end" dominant-baseline="middle">1</text><line x1="52" y1="78.66666667" x2="56" y2="78.66666667" stroke="#999999" stroke-width="1"/><text x="48" y="78.66666667" font-family="system-ui, -apple-system, sans-serif" font-size="11" fill="#333333" text-anchor="end" dominant-baseline="middle">2</text><line x1="52" y1="24" x2="56" y2="24" stroke="#999999" stroke-width="1"/><text x="48" y="24" font-family="system-ui, -apple-system, sans-serif" font-size="11" fill="#333333" text-anchor="end" dominant-baseline="middle">3</text><text x="16" y="188" font-family="system-ui, -apple-system, sans-serif" font-size="12" fill="#333333" text-anchor="middle" dominant-baseline="alphabetic" transform="rotate(-90 16 188)">y</text></svg>
