<svg xmlns="http://www.w3.org/2000/svg" viewBox="0 0 640 400" width="640" height="400" role="img" aria-label="Fare by hour" aria-describedby="glyph-desc"><desc id="glyph-desc">Fare by hour</desc><rect x="0" y="0" width="640" height="400" fill="#ffffff"/><text x="320" y="16" font-family="system-ui, -apple-system, sans-serif" font-size="14" fill="#1a1a1a" text-anchor="middle" dominant-baseline="middle">Fare by hour</text><line x1="56" y1="360" x2="616" y2="360" stroke="#e6e6e6" stroke-width="1"/><line x1="56" y1="276" x2="616" y2="276" stroke="#e6e6e6" stroke-width="1"/><line x1="56" y1="192" x2="616" y2="192" stroke="#e6e6e6" stroke-width="1"/><line x1="56" y1="108" x2="616" y2="108" stroke="#e6e6e6" stroke-width="1"/><line x1="56" y1="24" x2="616" y2="24" stroke="#e6e6e6" stroke-width="1"/><circle cx="56" cy="150" r="3" fill="#4c78a8"/><circle cx="78.4" cy="171.84" r="3" fill="#4c78a8"/><circle cx="100.8" cy="190.32" r="3" fill="#4c78a8"/><circle cx="190.4" cy="101.28" r="3" fill="#4c78a8"/><circle cx="212.8" cy="60.96" r="3" fill="#4c78a8"/><circle cx="235.2" cy="54.24" r="3" fill="#4c78a8"/><circle cx="257.6" cy="106.32" r="3" fill="#4c78a8"/><circle cx="436.8" cy="86.16" r="3" fill="#4c78a8"/><circle cx="459.2" cy="72.72" r="3" fill="#4c78a8"/><circle cx="481.6" cy="50.88" r="3" fill="#4c78a8"/><circle cx="548.8" cy="121.44" r="3" fill="#4c78a8"/><circle cx="571.2" cy="139.92" r="3" fill="#4c78a8"/><line x1="56" y1="360" x2="616" y2="360" stroke="#999999" stroke-width="1"/><line x1="56" y1="360" x2="56" y2="364" stroke="#999999" stroke-width="1"/><text x="56" y="376" font-family="system-ui, -apple-system, sans-serif" font-size="11" fill="#333333" text-anchor="middle" dominant-baseline="hanging">0</text><line x1="168" y1="360" x2="168" y2="364" stroke="#999999" stroke-width="1"/><text x="168" y="376" font-family="system-ui, -apple-system, sans-serif" font-size="11" fill="#333333" text-anchor="middle" dominant-baseline="hanging">5</text><line x1="280" y1="360" x2="280" y2="364" stroke="#999999" stroke-width="1"/><text x="280" y="376" font-family="system-ui, -apple-system, sans-serif" font-size="11" fill="#333333" text-anchor="middle" dominant-baseline="hanging">10</text><line x1="392" y1="360" x2="392" y2="364" stroke="#999999" stroke-width="1"/><text x="392" y="376" font-family="system-ui, -apple-system, sans-serif" font-size="11" fill="#333333" text-anchor="middle" dominant-baseline="hanging">15</text><line x1="504" y1="360" x2="504" y2="364" stroke="#999999" stroke-width="1"/><text x="504" y="376" font-family="system-ui, -apple-system, sans-serif" font-size="11" fill="#333333" text-anchor="middle" dominant-baseline="hanging">20</text><line x1="616" y1="360" x2="616" y2="364" stroke="#999999" stroke-width="1"/><text x="616" y="376" font-family="system-ui, -apple-system, sans-serif" font-size="11" fill="#333333" text-anchor="middle" dominant-baseline="hanging">25</text><text x="336" y="392" font-family="system-ui, -apple-system, sans-serif" font-size="12" fill="#333333" text-anchor="middle" dominant-baseline="hanging">pickup_hour</text><line x1="56" y1="24" x2="56" y2="360" stroke="#999999" stroke-width="1"/><line x1="52" y1="360" x2="56" y2="360" stroke="#999999" stroke-width="1"/><text x="48" y="360" font-family="system-ui, -apple-system, sans-serif" font-size="11" fill="#333333" text-anchor="end" dominant-baseline="middle">0</text><line x1="52" y1="276" x2="56" y2="276" stroke="#999999" stroke-width="1"/><text x="48" y="276" font-family="system-ui, -apple-system, sans-serif" font-size="11" fill="#333333" text-anchor="end" dominant-baseline="middle">5</text><line x1="52" y1="192" x2="56" y2="192" stroke="#999999" stroke-width="1"/><text x="48" y="192" font-family="system-ui, -apple-system, sans-serif" font-size="11" fill="#333333" text-anchor="end" dominant-baseline="middle">10</text><line x1="52" y1="108" x2="56" y2="108" stroke="#999999" stroke-width="1"/><text x="48" y="108" font-family="system-ui, -apple-system, sans-serif" font-size="11" fill="#333333" text-anchor="end" dominant-baseline="middle">15</text><line x1="52" y1="24" x2="56" y2="24" stroke="#999999" stroke-width="1"/><text x="48" y="24" font-family="system-ui, -apple-system, sans-serif" font-size="11" fill="#333333" text-anchor="end" dominant-baseline="middle">20</text><text x="16" y="192" font-family="system-ui, -apple-system, sans-serif" font-size="12" fill="#333333" text-anchor="middle" dominant-baseline="alphabetic" transform="rotate(-90 16 192)">fare</text></svg>
