<svg xmlns="http://www.w3.org/2000/svg" viewBox="0 0 640 400" width="640" height="400" role="img" aria-label="Rides over hour (area)" aria-describedby="glyph-desc"><desc id="glyph-desc">Rides over hour (area)</desc><rect x="0" y="0" width="640" height="400" fill="#ffffff"/><text x="320" y="16" font-family="system-ui, -apple-system, sans-serif" font-size="14" fill="#1a1a1a" text-anchor="middle" dominant-baseline="middle">Rides over hour (area)</text><line x1="56" y1="360" x2="616" y2="360" stroke="#e6e6e6" stroke-width="1"/><line x1="56" y1="304" x2="616" y2="304" stroke="#e6e6e6" stroke-width="1"/><line x1="56" y1="248" x2="616" y2="248" stroke="#e6e6e6" stroke-width="1"/><line x1="56" y1="192" x2="616" y2="192" stroke="#e6e6e6" stroke-width="1"/><line x1="56" y1="136" x2="616" y2="136" stroke="#e6e6e6" stroke-width="1"/><line x1="56" y1="80" x2="616" y2="80" stroke="#e6e6e6" stroke-width="1"/><line x1="56" y1="24" x2="616" y2="24" stroke="#e6e6e6" stroke-width="1"/><path d="M 56 312.96 L 78.4 317.44 L 100.8 326.4 L 190.4 225.6 L 212.8 124.8 L 235.2 68.8 L 257.6 158.4 L 436.8 91.2 L 459.2 68.8 L 481.6 102.4 L 548.8 259.2 L 571.2 292.8 L 571.2 360 L 56 360 Z" fill="#4c78a8" stroke="#4c78a8" stroke-width="1.5" opacity="0.55"/><line x1="56" y1="360" x2="616" y2="360" stroke="#999999" stroke-width="1"/><line x1="56" y1="360" x2="56" y2="364" stroke="#999999" stroke-width="1"/><text x="56" y="376" font-family="system-ui, -apple-system, sans-serif" font-size="11" fill="#333333" text-anchor="middle" dominant-baseline="hanging">0</text><line x1="168" y1="360" x2="168" y2="364" stroke="#999999" stroke-width="1"/><text x="168" y="376" font-family="system-ui, -apple-system, sans-serif" font-size="11" fill="#333333" text-anchor="middle" dominant-baseline="hanging">5</text><line x1="280" y1="360" x2="280" y2="364" stroke="#999999" stroke-width="1"/><text x="280" y="376" font-family="system-ui, -apple-system, sans-serif" font-size="11" fill="#333333" text-anchor="middle" dominant-baseline="hanging">10</text><line x1="392" y1="360" x2="392" y2="364" stroke="#999999" stroke-width="1"/><text x="392" y="376" font-family="system-ui, -apple-system, sans-serif" font-size="11" fill="#333333" text-anchor="middle" dominant-baseline="hanging">15</text><line x1="504" y1="360" x2="504" y2="364" stroke="#999999" stroke-width="1"/><text x="504" y="376" font-family="system-ui, -apple-system, sans-serif" font-size="11" fill="#333333" text-anchor="middle" dominant-baseline="hanging">20</text><line x1="616" y1="360" x2="616" y2="364" stroke="#999999" stroke-width="1"/><text x="616" y="376" font-family="system-ui, -apple-system, sans-serif" font-size="11" fill="#333333" text-anchor="middle" dominant-baseline="hanging">25</text><text x="336" y="392" font-family="system-ui, -apple-system, sans-serif" font-size="12" fill="#333333" text-anchor="middle" dominant-baseline="hanging">pickup_hour</text><line x1="56" y1="24" x2="56" y2="360" stroke="#999999" stroke-width="1"/><line x1="52" y1="360" x2="56" y2="360" stroke="#999999" stroke-width="1"/><text x="48" y="360" font-family="system-ui, -apple-system, sans-serif" font-size="11" fill="#333333" text-anchor="end" dominant-baseline="middle">0</text><line x1="52" y1="304" x2="56" y2="304" stroke="#999999" stroke-width="1"/><text x="48" y="304" font-family="system-ui, -apple-system, sans-serif" font-size="11" fill="#333333" text-anchor="end" dominant-baseline="middle">50</text><line x1="52" y1="248" x2="56" y2="248" stroke="#999999" stroke-width="1"/><text x="48" y="248" font-family="system-ui, -apple-system, sans-serif" font-size="11" fill="#333333" text-anchor="end" dominant-baseline="middle">100</text><line x1="52" y1="192" x2="56" y2="192" stroke="#999999" stroke-width="1"/><text x="48" y="192" font-family="system-ui, -apple-system, sans-serif" font-size="11" fill="#333333" text-anchor="end" dominant-baseline="middle">150</text><line x1="52" y1="136" x2="56" y2="136" stroke="#999999" stroke-width="1"/><text x="48" y="136" font-family="system-ui, -apple-system, sans-serif" font-size="11" fill="#333333" text-anchor="end" dominant-baseline="middle">200</text><line x1="52" y1="80" x2="56" y2="80" stroke="#999999" stroke-width="1"/><text x="48" y="80" font-family="system-ui, -apple-system, sans-serif" font-size="11" fill="#333333" text-anchor="end" dominant-baseline="middle">250</text><line x1="52" y1="24" x2="56" y2="24" stroke="#999999" stroke-width="1"/><text x="48" y="24" font-family="system-ui, -apple-system, sans-serif" font-size="11" fill="#333333" text-anchor="end" dominant-baseline="middle">300</text><text x="16" y="192" font-family="system-ui, -apple-system, sans-serif" font-size="12" fill="#333333" text-anchor="middle" dominant-baseline="alphabetic" transform="rotate(-90 16 192)">rides</text></svg>
