<svg xmlns="http://www.w3.org/2000/svg" viewBox="0 0 640 400" width="640" height="400" role="img" aria-label="Brand-themed bar chart" aria-describedby="glyph-desc"><desc id="glyph-desc">Brand-themed bar chart</desc><rect x="0" y="0" width="640" height="400" fill="#fffaf3"/><text x="320" y="16" font-family="system-ui, -apple-system, sans-serif" font-size="14" fill="#1a1a1a" text-anchor="middle" dominant-baseline="middle">Brand-themed bar chart</text><line x1="56" y1="360" x2="616" y2="360" stroke="#e6e6e6" stroke-width="1"/><line x1="56" y1="304" x2="616" y2="304" stroke="#e6e6e6" stroke-width="1"/><line x1="56" y1="248" x2="616" y2="248" stroke="#e6e6e6" stroke-width="1"/><line x1="56" y1="192" x2="616" y2="192" stroke="#e6e6e6" stroke-width="1"/><line x1="56" y1="136" x2="616" y2="136" stroke="#e6e6e6" stroke-width="1"/><line x1="56" y1="80" x2="616" y2="80" stroke="#e6e6e6" stroke-width="1"/><line x1="56" y1="24" x2="616" y2="24" stroke="#e6e6e6" stroke-width="1"/><rect x="58.33333333" y="312.96" width="42" height="47.04" fill="#9d4edd"/><rect x="105" y="317.44" width="42" height="42.56" fill="#9d4edd"/><rect x="151.66666667" y="326.4" width="42" height="33.6" fill="#9d4edd"/><rect x="198.33333333" y="225.6" width="42" height="134.4" fill="#9d4edd"/><rect x="245" y="124.8" width="42" height="235.2" fill="#9d4edd"/><rect x="291.66666667" y="68.8" width="42" height="291.2" fill="#9d4edd"/><rect x="338.33333333" y="158.4" width="42" height="201.6" fill="#9d4edd"/><rect x="385" y="91.2" width="42" height="268.8" fill="#9d4edd"/><rect x="431.66666667" y="68.8" width="42" height="291.2" fill="#9d4edd"/><rect x="478.33333333" y="102.4" width="42" height="257.6" fill="#9d4edd"/><rect x="525" y="259.2" width="42" height="100.8" fill="#9d4edd"/><rect x="571.66666667" y="292.8" width="42" height="67.2" fill="#9d4edd"/><line x1="56" y1="360" x2="616" y2="360" stroke="#999999" stroke-width="1"/><line x1="79.33333333" y1="360" x2="79.33333333" y2="364" stroke="#999999" stroke-width="1"/><text x="79.33333333" y="376" font-family="system-ui, -apple-system, sans-serif" font-size="11" fill="#333333" text-anchor="middle" dominant-baseline="hanging">0</text><line x1="126" y1="360" x2="126" y2="364" stroke="#999999" stroke-width="1"/><text x="126" y="376" font-family="system-ui, -apple-system, sans-serif" font-size="11" fill="#333333" text-anchor="middle" dominant-baseline="hanging">1</text><line x1="172.66666667" y1="360" x2="172.66666667" y2="364" stroke="#999999" stroke-width="1"/><text x="172.66666667" y="376" font-family="system-ui, -apple-system, sans-serif" font-size="11" fill="#333333" text-anchor="middle" dominant-baseline="hanging">2</text><line x1="219.33333333" y1="360" x2="219.33333333" y2="364" stroke="#999999" stroke-width="1"/><text x="219.33333333" y="376" font-family="system-ui, -apple-system, sans-serif" font-size="11" fill="#333333" text-anchor="middle" dominant-baseline="hanging">6</text><line x1="266" y1="360" x2="266" y2="364" stroke="#999999" stroke-width="1"/><text x="266" y="376" font-family="system-ui, -apple-system, sans-serif" font-size="11" fill="#333333" text-anchor="middle" dominant-baseline="hanging">7</text><line x1="312.66666667" y1="360" x2="312.66666667" y2="364" stroke="#999999" stroke-width="1"/><text x="312.66666667" y="376" font-family="system-ui, -apple-system, sans-serif" font-size="11" fill="#333333" text-anchor="middle" dominant-baseline="hanging">8</text><line x1="359.33333333" y1="360" x2="359.33333333" y2="364" stroke="#999999" stroke-width="1"/><text x="359.33333333" y="376" font-family="system-ui, -apple-system, sans-serif" font-size="11" fill="#333333" text-anchor="middle" dominant-baseline="hanging">9</text><line x1="406" y1="360" x2="406" y2="364" stroke="#999999" stroke-width="1"/><text x="406" y="376" font-family="system-ui, -apple-system, sans-serif" font-size="11" fill="#333333" text-anchor="middle" dominant-baseline="hanging">17</text><line x1="452.66666667" y1="360" x2="452.66666667" y2="364" stroke="#999999" stroke-width="1"/><text x="452.66666667" y="376" font-family="system-ui, -apple-system, sans-serif" font-size="11" fill="#333333" text-anchor="middle" dominant-baseline="hanging">18</text><line x1="499.33333333" y1="360" x2="499.33333333" y2="364" stroke="#999999" stroke-width="1"/><text x="499.33333333" y="376" font-family="system-ui, -apple-system, sans-serif" font-size="11" fill="#333333" text-anchor="middle" dominant-baseline="hanging">19</text><line x1="546" y1="360" x2="546" y2="364" stroke="#999999" stroke-width="1"/><text x="546" y="376" font-family="system-ui, -apple-system, sans-serif" font-size="11" fill="#333333" text-anchor="middle" dominant-baseline="hanging">22</text><line x1="592.66666667" y1="360" x2="592.66666667" y2="364" stroke="#999999" stroke-width="1"/><text x="592.66666667" y="376" font-family="system-ui, -apple-system, sans-serif" font-size="11" fill="#333333" text-anchor="middle" dominant-baseline="hanging">23</text><text x="336" y="392" font-family="system-ui, -apple-system, sans-serif" font-size="12" fill="#333333" text-anchor="middle" dominant-baseline="hanging">pickup_hour</text><line x1="56" y1="24" x2="56" y2="360" stroke="#999999" stroke-width="1"/><line x1="52" y1="360" x2="56" y2="360" stroke="#999999" stroke-width="1"/><text x="48" y="360" font-family="system-ui, -apple-system, sans-serif" font-size="11" fill="#333333" text-anchor="end" dominant-baseline="middle">0</text><line x1="52" y1="304" x2="56" y2="304" stroke="#999999" stroke-width="1"/><text x="48" y="304" font-family="system-ui, -apple-system, sans-serif" font-size="11" fill="#333333" text-anchor="end" dominant-baseline="middle">50</text><line x1="52" y1="248" x2="56" y2="248" stroke="#999999" stroke-width="1"/><text x="48" y="248" font-family="system-ui, -apple-system, sans-serif" font-size="11" fill="#333333" text-anchor="end" dominant-baseline="middle">100</text><line x1="52" y1="192" x2="56" y2="192" stroke="#999999" stroke-width="1"/><text x="48" y="192" font-family="system-ui, -apple-system, sans-serif" font-size="11" fill="#333333" text-anchor="end" dominant-baseline="middle">150</text><line x1="52" y1="136" x2="56" y2="136" stroke="#999999" stroke-width="1"/><text x="48" y="136" font-family="system-ui, -apple-system, sans-serif" font-size="11" fill="#333333" text-anchor="end" dominant-baseline="middle">200</text><line x1="52" y1="80" x2="56" y2="80" stroke="#999999" stroke-width="1"/><text x="48" y="80" font-family="system-ui, -apple-system, sans-serif" font-size="11" fill="#333333" text-anchor="end" dominant-baseline="middle">250</text><line x1="52" y1="24" x2="56" y2="24" stroke="#999999" stroke-width="1"/><text x="48" y="24" font-family="system-ui, -apple-system, sans-serif" font-size="11" fill="#333333" text-anchor="end" dominant-baseline="middle">300</text><text x="16" y="192" font-family="system-ui, -apple-system, sans-serif" font-size="12" fill="#333333" text-anchor="middle" dominant-baseline="alphabetic" transform="rotate(-90 16 192)">rides</text></svg>
