<svg xmlns="http://www.w3.org/2000/svg" viewBox="0 0 640 400" width="640" height="400" role="img" aria-label="Hypotrochoid: R=5, r=3, d=5 (rosette)" aria-describedby="glyph-desc"><desc id="glyph-desc">Hypotrochoid: R=5, r=3, d=5 (rosette)</desc><metadata id="glyph-provenance"><![CDATA[{"format":"glyph-provenance/1","specHash":"10fb024a33e8b25b82072ea245b7b522924fecf1d83f09716e7d5e436622de5c","dataHash":"0a15667c9b00a5a083b417173999675bae00f2632df01d42e22823fbc99bc8e3","libraryVersion":"0.0.0","rowCount":1200,"scaleDigest":"e7b6abc041d3819259243d1285147576414e369fbe62dbae106ceb980878670e"}]]></metadata><rect x="0" y="0" width="640" height="400" fill="#ffffff"/><text x="320" y="16" font-family="system-ui, -apple-system, sans-serif" font-size="14" fill="#1a1a1a" text-anchor="middle" dominant-baseline="middle">Hypotrochoid: R=5, r=3, d=5 (rosette)</text><line x1="56" y1="352" x2="616" y2="352" stroke="#e6e6e6" stroke-width="1"/><line x1="56" y1="311" x2="616" y2="311" stroke="#e6e6e6" stroke-width="1"/><line x1="56" y1="270" x2="616" y2="270" stroke="#e6e6e6" stroke-width="1"/><line x1="56" y1="229" x2="616" y2="229" stroke="#e6e6e6" stroke-width="1"/><line x1="56" y1="188" x2="616" y2="188" stroke="#e6e6e6" stroke-width="1"/><line x1="56" y1="147" x2="616" y2="147" stroke="#e6e6e6" stroke-width="1"/><line x1="56" y1="106" x2="616" y2="106" stroke="#e6e6e6" stroke-width="1"/><line x1="56" y1="65" x2="616" y2="65" stroke="#e6e6e6" stroke-width="1"/><line x1="56" y1="24" x2="616" y2="24" stroke="#e6e6e6" stroke-width="1"/><path d="M 576 188 L 575.9791297 188.42971597 L 575.91652246 188.85947324 L 575.81218922 189.28931306 L 575.66614824 189.71927667 L 575.47842504 190.14940519 L 575.24905245 190.57973966 L 574.97807059 191.01032097 L 574.66552683 191.44118987 L 574.31147582 191.8723869 L 573.91597945 192.30395243 L 573.47910687 192.73592655 L 573.00093443 193.16834912 L 572.48154571 193.60125968 L 571.92103148 194.03469749 L 571.31948968 194.46870145 L 570.67702542 194.90331009 L 569.99375091 195.33856156 L 569.26978552 195.77449359 L 568.50525568 196.21114346 L 567.70029488 196.648548 L 566.85504365 197.08674352 L 565.96964954 197.52576585 L 565.04426707 197.96565024 L 564.07905768 198.40643141 L 563.07418977 198.84814345 L 562.0298386 199.29081987 L 560.94618626 199.73449352 L 559.82342166 200.17919661 L 558.66174048 200.62496062 L 557.46134515 201.07181638 L 556.22244475 201.51979393 L 554.94525503 201.9689226 L 553.62999836 202.41923092 L 552.27690364 202.87074661 L 550.8862063 203.3234966 L 549.45814823 203.77750695 L 547.99297775 204.23280285 L 546.49094954 204.68940862 L 544.95232459 205.14734767 L 543.37737016 205.60664247 L 541.76635973 206.06731455 L 540.11957291 206.52938446 L 538.43729545 206.99287177 L 536.71981911 207.45779504 L 534.96744164 207.9241718 L 533.18046673 208.39201853 L 531.35920391 208.86135065 L 529.50396852 209.33218249 L 527.61508166 209.80452728 L 525.69287008 210.27839714 L 523.73766614 210.75380304 L 521.74980774 211.23075481 L 519.72963829 211.70926109 L 517.67750655 212.18932936 L 515.59376666 212.67096587 L 513.478778 213.15417569 L 511.33290517 213.63896263 L 509.15651786 214.12532926 L 506.94999084 214.61327689 L 504.71370383 215.10280556 L 502.44804144 215.59391403 L 500.15339314 216.08659974 L 497.8301531 216.58085884 L 495.47872018 217.07668614 L 493.09949782 217.57407513 L 490.69289395 218.07301793 L 488.25932096 218.57350532 L 485.79919553 219.07552671 L 483.31293866 219.57907012 L 480.80097547 220.08412221 L 478.26373521 220.59066822 L 475.70165112 221.09869199 L 473.11516037 221.60817596 L 470.50470395 222.11910112 L 467.87072662 222.63144708 L 465.21367677 223.14519197 L 462.53400639 223.66031252 L 459.83217094 224.17678397 L 457.10862925 224.69458016 L 454.36384349 225.21367344 L 451.59827902 225.73403471 L 448.81240431 226.25563341 L 446.00669088 226.77843751 L 443.18161315 227.30241352 L 440.33764843 227.82752646 L 437.47527672 228.35373991 L 434.59498072 228.88101593 L 431.69724566 229.40931514 L 428.78255924 229.93859668 L 425.85141153 230.46881821 L 422.90429487 230.99993592 L 419.94170379 231.53190451 L 416.96413486 232.06467722 L 413.97208669 232.59820585 L 410.96605971 233.13244068 L 407.9465562 233.66733057 L 404.91408008 234.20282289 L 401.86913689 234.73886359 L 398.81223366 235.27539714 L 395.7438788 235.81236657 L 392.66458205 236.34971349 L 389.5748543 236.88737806 L 386.47520759 237.42529901 L 383.36615493 237.96341367 L 380.24821024 238.50165794 L 377.12188823 239.03996633 L 373.98770435 239.57827194 L 370.8461746 240.11650652 L 367.69781554 240.65460041 L 364.5431441 241.19248259 L 361.38267752 241.73008071 L 358.21693327 242.26732104 L 355.04642891 242.80412856 L 351.87168202 243.34042691 L 348.69321008 243.87613841 L 345.51153039 244.41118412 L 342.32715997 244.94548379 L 339.14061545 245.47895593 L 335.95241297 246.01151778 L 332.76306811 246.54308535 L 329.57309577 247.07357344 L 326.38301005 247.60289563 L 323.19332421 248.13096433 L 320.00455054 248.65769077 L 316.81720024 249.18298501 L 313.63178337 249.70675602 L 310.44880874 250.2289116 L 307.2687838 250.74935849 L 304.09221455 251.26800233 L 300.91960546 251.78474771 L 297.75145937 252.29949818 L 294.58827738 252.81215626 L 291.43055877 253.32262348 L 288.27880092 253.83080039 L 285.1334992 254.3365866 L 281.99514689 254.83988075 L 278.86423508 255.34058061 L 275.74125257 255.83858303 L 272.62668583 256.33378402 L 269.52101884 256.82607872 L 266.42473305 257.31536148 L 263.33830728 257.80152584 L 260.26221764 258.28446458 L 257.19693743 258.76406972 L 254.14293706 259.2402326 L 251.10068397 259.71284381 L 248.07064254 260.18179334 L 245.05327402 260.64697048 L 242.04903641 261.10826395 L 239.05838443 261.56556187 L 236.08176942 262.01875178 L 233.11963922 262.46772073 L 230.17243817 262.91235524 L 227.24060696 263.35254136 L 224.32458258 263.78816471 L 221.42479826 264.21911046 L 218.54168336 264.64526342 L 215.67566332 265.06650804 L 212.82715958 265.48272843 L 209.99658952 265.89380841 L 207.18436636 266.29963153 L 204.39089911 266.7000811 L 201.6165925 267.09504021 L 198.86184689 267.48439181 L 196.12705825 267.86801867 L 193.41261803 268.24580346 L 190.71891314 268.61762876 L 188.04632589 268.98337711 L 185.39523388 269.34293102 L 182.76600998 269.69617302 L 180.15902226 270.04298569 L 177.57463393 270.38325166 L 175.01320326 270.71685371 L 172.47508355 271.04367472 L 169.96062306 271.3635978 L 167.47016496 271.6765062 L 165.00404727 271.98228347 L 162.56260282 272.28081341 L 160.14615918 272.57198011 L 157.7550386 272.85566804 L 155.38955801 273.131762 L 153.05002892 273.40014724 L 150.73675741 273.66070942 L 148.45004403 273.9133347 L 146.19018384 274.15790971 L 143.95746629 274.39432165 L 141.75217521 274.6224583 L 139.57458877 274.84220804 L 137.42497944 275.05345987 L 135.30361395 275.25610351 L 133.21075325 275.45002936 L 131.14665247 275.63512856 L 129.1115609 275.81129305 L 127.10572194 275.97841556 L 125.1293731 276.13638967 L 123.18274592 276.28510984 L 121.26606599 276.42447145 L 119.37955288 276.5543708 L 117.52342015 276.6747052 L 115.69787531 276.78537293 L 113.90311978 276.88627335 L 112.13934891 276.97730687 L 110.4067519 277.05837504 L 108.70551184 277.12938052 L 107.03580565 277.19022716 L 105.39780408 277.24082002 L 103.79167168 277.28106539 L 102.21756683 277.31087083 L 100.67564166 277.33014523 L 99.16604209 277.33879877 L 97.6889078 277.33674303 L 96.24437222 277.32389097 L 94.83256253 277.300157 L 93.45359966 277.26545697 L 92.10759825 277.21970823 L 90.79466669 277.16282965 L 89.5149071 277.09474164 L 88.26841532 277.0153662 L 87.05528093 276.92462695 L 85.87558723 276.82244914 L 84.72941126 276.70875969 L 83.6168238 276.58348722 L 82.53788937 276.44656207 L 81.49266625 276.29791634 L 80.48120646 276.13748392 L 79.50355583 275.96520051 L 78.55975392 275.78100362 L 77.64983413 275.58483267 L 76.77382365 275.37662895 L 75.93174347 275.15633565 L 75.12360845 274.92389793 L 74.3494273 274.67926291 L 73.60920259 274.4223797 L 72.9029308 274.15319944 L 72.23060232 273.8716753 L 71.59220148 273.57776254 L 70.98770658 273.27141848 L 70.41708989 272.95260259 L 69.88031772 272.62127644 L 69.3773504 272.27740379 L 68.90814233 271.92095056 L 68.47264204 271.5518849 L 68.07079215 271.17017715 L 67.70252947 270.77579993 L 67.36778501 270.3687281 L 67.066484 269.94893881 L 66.79854594 269.51641152 L 66.56388464 269.071128 L 66.36240825 268.61307239 L 66.19401929 268.14223115 L 66.05861472 267.65859314 L 65.95608596 267.16214961 L 65.88631893 266.65289421 L 65.84919411 266.13082303 L 65.84458656 265.59593458 L 65.87236598 265.04822985 L 65.93239677 264.48771227 L 66.02453806 263.91438777 L 66.14864375 263.32826477 L 66.30456259 262.7293542 L 66.4921382 262.11766952 L 66.71120914 261.4932267 L 66.96160896 260.85604426 L 67.24316624 260.2061433 L 67.55570466 259.54354743 L 67.89904305 258.86828288 L 68.27299546 258.18037843 L 68.67737119 257.47986547 L 69.11197485 256.76677797 L 69.57660645 256.04115251 L 70.07106144 255.30302828 L 70.59513075 254.55244707 L 71.1486009 253.78945332 L 71.731254 253.01409406 L 72.34286788 252.22641898 L 72.98321609 251.42648037 L 73.65206802 250.61433318 L 74.34918892 249.79003499 L 75.07433999 248.95364602 L 75.82727844 248.10522911 L 76.60775756 247.24484976 L 77.41552679 246.3725761 L 78.25033177 245.4884789 L 79.11191444 244.59263157 L 80.00001308 243.68511016 L 80.91436239 242.76599332 L 81.85469358 241.83536235 L 82.82073439 240.89330119 L 83.81220924 239.93989638 L 84.82883922 238.97523706 L 85.87034221 237.999415 L 86.93643297 237.01252457 L 88.02682314 236.01466273 L 89.1412214 235.00592901 L 90.27933349 233.98642554 L 91.44086229 232.95625701 L 92.62550793 231.91553068 L 93.83296783 230.86435633 L 95.06293677 229.8028463 L 96.31510701 228.73111547 L 97.58916831 227.64928119 L 98.88480807 226.55746335 L 100.20171134 225.45578431 L 101.53956096 224.34436892 L 102.89803758 223.22334446 L 104.27681978 222.09284068 L 105.67558415 220.95298974 L 107.09400531 219.80392624 L 108.53175607 218.64578713 L 109.98850744 217.47871177 L 111.46392875 216.30284188 L 112.95768772 215.11832149 L 114.46945051 213.92529697 L 115.99888186 212.723917 L 117.54564508 211.51433252 L 119.10940223 210.29669673 L 120.68981412 209.07116508 L 122.28654042 207.83789521 L 123.89923973 206.59704698 L 125.52756967 205.34878238 L 127.17118697 204.09326558 L 128.8297475 202.83066285 L 130.50290639 201.56114255 L 132.19031811 200.28487511 L 133.89163651 199.00203301 L 135.60651494 197.71279073 L 137.33460632 196.41732473 L 139.07556317 195.11581346 L 140.82903777 193.80843727 L 142.59468215 192.49537841 L 144.37214824 191.17682103 L 146.1610879 189.85295109 L 147.96115301 188.52395637 L 149.77199555 187.19002643 L 151.59326766 185.85135259 L 153.42462175 184.50812787 L 155.26571053 183.16054696 L 157.11618712 181.80880624 L 158.97570509 180.45310368 L 160.84391857 179.09363882 L 162.72048231 177.73061278 L 164.60505172 176.36422817 L 166.497283 174.99468909 L 168.39683317 173.62220107 L 170.30336015 172.24697105 L 172.21652284 170.86920735 L 174.13598118 169.48911961 L 176.06139623 168.10691877 L 177.99243021 166.72281702 L 179.92874661 165.33702779 L 181.87001025 163.94976565 L 183.81588729 162.56124636 L 185.76604539 161.17168673 L 187.7201537 159.78130469 L 189.67788297 158.39031913 L 191.63890557 156.99894998 L 193.6028956 155.60741806 L 195.56952893 154.21594513 L 197.53848328 152.82475378 L 199.50943824 151.43406743 L 201.48207538 150.04411028 L 203.45607829 148.65510724 L 205.43113261 147.26728394 L 207.40692616 145.88086664 L 209.38314891 144.49608219 L 211.35949313 143.11315804 L 213.33565335 141.73232211 L 215.3113265 140.35380283 L 217.28621191 138.97782903 L 219.26001139 137.60462996 L 221.23242926 136.23443518 L 223.20317244 134.86747456 L 225.17195045 133.5039782 L 227.13847551 132.14417644 L 229.10246257 130.78829976 L 231.06362933 129.43657876 L 233.02169633 128.08924409 L 234.97638698 126.74652647 L 236.9274276 125.40865654 L 238.87454748 124.07586492 L 240.81747889 122.74838209 L 242.75595718 121.42643838 L 244.68972076 120.11026392 L 246.61851118 118.80008858 L 248.54207315 117.49614191 L 250.46015459 116.19865316 L 252.37250669 114.90785116 L 254.27888388 113.62396431 L 256.17904393 112.34722051 L 258.07274796 111.07784715 L 259.95976049 109.81607103 L 261.83984942 108.56211835 L 263.71278613 107.31621459 L 265.57834548 106.07858457 L 267.43630584 104.8494523 L 269.2864491 103.62904102 L 271.12856073 102.41757308 L 272.9624298 101.21526995 L 274.78784899 100.02235214 L 276.60461461 98.83903917 L 278.41252666 97.66554952 L 280.2113888 96.50210058 L 282.00100841 95.34890862 L 283.78119662 94.20618871 L 285.55176827 93.07415472 L 287.31254198 91.95301924 L 289.06334016 90.84299355 L 290.80398901 89.74428756 L 292.53431854 88.65710978 L 294.25416259 87.5816673 L 295.96335883 86.51816568 L 297.66174878 85.46680896 L 299.34917782 84.4277996 L 301.0254952 83.40133844 L 302.69055405 82.38762463 L 304.34421138 81.38685563 L 305.98632807 80.39922715 L 307.61676892 79.42493308 L 309.23540263 78.4641655 L 310.84210176 77.51711458 L 312.43674281 76.58396858 L 314.01920617 75.66491381 L 315.58937613 74.76013455 L 317.14714088 73.86981304 L 318.69239251 72.99412944 L 320.22502699 72.13326177 L 321.74494419 71.28738591 L 323.25204786 70.45667551 L 324.74624563 69.64130197 L 326.227449 68.84143443 L 327.6955733 68.05723968 L 329.15053774 67.28888216 L 330.59226536 66.53652394 L 332.02068303 65.80032461 L 333.4357214 65.08044132 L 334.83731497 64.37702869 L 336.22540199 63.69023883 L 337.59992447 63.02022123 L 338.9608282 62.36712281 L 340.30806268 61.73108781 L 341.64158114 61.1122578 L 342.96134048 60.51077164 L 344.2673013 59.92676544 L 345.55942783 59.36037254 L 346.83768794 58.81172344 L 348.1020531 58.28094583 L 349.35249836 57.76816452 L 350.58900233 57.27350141 L 351.81154715 56.79707546 L 353.02011844 56.33900268 L 354.21470532 55.8993961 L 355.39530035 55.47836571 L 356.56189948 55.07601846 L 357.71450208 54.69245825 L 358.85311085 54.32778585 L 359.97773181 53.98209892 L 361.08837427 53.65549198 L 362.18505081 53.34805636 L 363.2677772 53.05988021 L 364.33657242 52.79104845 L 365.39145858 52.54164276 L 366.4324609 52.31174155 L 367.45960768 52.10141996 L 368.47293025 51.9107498 L 369.47246295 51.73979957 L 370.45824304 51.58863443 L 371.43031074 51.45731616 L 372.38870911 51.34590317 L 373.33348405 51.25445047 L 374.26468427 51.18300965 L 375.18236119 51.13162887 L 376.08656895 51.10035283 L 376.97736438 51.0892228 L 377.85480686 51.09827654 L 378.7189584 51.12754834 L 379.5698835 51.177069 L 380.40764913 51.24686577 L 381.23232472 51.33696242 L 382.04398205 51.44737915 L 382.84269525 51.57813264 L 383.62854073 51.729236 L 384.40159715 51.90069878 L 385.16194533 52.09252699 L 385.90966824 52.30472303 L 386.64485096 52.53728572 L 387.36758055 52.79021032 L 388.07794612 53.06348847 L 388.77603866 53.35710824 L 389.46195108 53.67105408 L 390.13577809 54.00530685 L 390.7976162 54.35984379 L 391.44756363 54.73463858 L 392.08572028 55.12966124 L 392.71218766 55.54487822 L 393.32706885 55.98025237 L 393.93046844 56.43574293 L 394.52249247 56.91130555 L 395.1032484 57.40689226 L 395.67284501 57.92245153 L 396.23139241 58.45792825 L 396.77900191 59.0132637 L 397.31578603 59.58839561 L 397.84185841 60.18325813 L 398.35733377 60.79778188 L 398.86232783 61.4318939 L 399.35695729 62.08551771 L 399.84133975 62.75857328 L 400.31559368 63.45097708 L 400.77983831 64.16264208 L 401.23419365 64.89347772 L 401.67878037 65.64339 L 402.11371979 66.41228143 L 402.53913378 67.20005106 L 402.95514475 68.00659451 L 403.36187557 68.83180398 L 403.75944952 69.67556827 L 404.14799023 70.53777278 L 404.52762163 71.41829953 L 404.8984679 72.31702721 L 405.2606534 73.23383117 L 405.61430264 74.16858344 L 405.9595402 75.12115276 L 406.29649069 76.09140461 L 406.62527869 77.07920121 L 406.94602871 78.08440156 L 407.25886511 79.10686145 L 407.56391207 80.14643352 L 407.86129355 81.20296722 L 408.15113319 82.2763089 L 408.43355429 83.36630179 L 408.70867977 84.47278606 L 408.97663209 85.59559883 L 409.23753321 86.7345742 L 409.49150454 87.88954327 L 409.73866691 89.06033421 L 409.97914046 90.24677222 L 410.21304466 91.44867962 L 410.44049824 92.66587587 L 410.66161909 93.89817758 L 410.8765243 95.14539855 L 411.08533003 96.40734983 L 411.28815153 97.68383972 L 411.48510304 98.97467381 L 411.67629777 100.27965502 L 411.86184785 101.59858366 L 412.0418643 102.93125742 L 412.21645694 104.27747143 L 412.38573441 105.63701831 L 412.54980407 107.00968817 L 412.70877198 108.3952687 L 412.86274286 109.79354515 L 413.01182006 111.20430042 L 413.15610549 112.62731507 L 413.29569959 114.06236738 L 413.4307013 115.50923335 L 413.56120803 116.96768681 L 413.68731558 118.43749938 L 413.80911814 119.91844058 L 413.92670824 121.41027785 L 414.04017674 122.91277656 L 414.14961273 124.42570011 L 414.25510356 125.94880993 L 414.35673478 127.48186555 L 414.45459009 129.02462462 L 414.54875135 130.57684297 L 414.6392985 132.13827468 L 414.72630956 133.70867207 L 414.80986061 135.28778579 L 414.89002572 136.87536484 L 414.96687694 138.47115665 L 415.04048429 140.07490709 L 415.11091571 141.68636053 L 415.17823706 143.30525991 L 415.24251204 144.93134674 L 415.30380223 146.56436121 L 415.36216705 148.20404219 L 415.41766368 149.8501273 L 415.47034713 151.50235293 L 415.52027015 153.16045436 L 415.56748323 154.82416572 L 415.6120346 156.4932201 L 415.65397017 158.16734959 L 415.69333355 159.84628532 L 415.73016603 161.5297575 L 415.76450654 163.21749551 L 415.79639165 164.9092279 L 415.82585555 166.60468248 L 415.85293007 168.30358636 L 415.8776446 170.005666 L 415.90002615 171.71064725 L 415.92009929 173.41825542 L 415.93788617 175.12821533 L 415.9534065 176.84025134 L 415.96667753 178.55408744 L 415.97771408 180.26944726 L 415.98652849 181.98605416 L 415.99313065 183.70363125 L 415.99752796 185.42190146 L 415.99972538 187.1405876 L 415.99972538 188.8594124 L 415.99752796 190.57809854 L 415.99313065 192.29636875 L 415.98652849 194.01394584 L 415.97771408 195.73055274 L 415.96667753 197.44591256 L 415.9534065 199.15974866 L 415.93788617 200.87178467 L 415.92009929 202.58174458 L 415.90002615 204.28935275 L 415.8776446 205.994334 L 415.85293007 207.69641364 L 415.82585555 209.39531752 L 415.79639165 211.0907721 L 415.76450654 212.78250449 L 415.73016603 214.4702425 L 415.69333355 216.15371468 L 415.65397017 217.83265041 L 415.6120346 219.5067799 L 415.56748323 221.17583428 L 415.52027015 222.83954564 L 415.47034713 224.49764707 L 415.41766368 226.1498727 L 415.36216705 227.79595781 L 415.30380223 229.43563879 L 415.24251204 231.06865326 L 415.17823706 232.69474009 L 415.11091571 234.31363947 L 415.04048429 235.92509291 L 414.96687694 237.52884335 L 414.89002572 239.12463516 L 414.80986061 240.71221421 L 414.72630956 242.29132793 L 414.6392985 243.86172532 L 414.54875135 245.42315703 L 414.45459009 246.97537538 L 414.35673478 248.51813445 L 414.25510356 250.05119007 L 414.14961273 251.57429989 L 414.04017674 253.08722344 L 413.92670824 254.58972215 L 413.80911814 256.08155942 L 413.68731558 257.56250062 L 413.56120803 259.03231319 L 413.4307013 260.49076665 L 413.29569959 261.93763262 L 413.15610549 263.37268493 L 413.01182006 264.79569958 L 412.86274286 266.20645485 L 412.70877198 267.6047313 L 412.54980407 268.99031183 L 412.38573441 270.36298169 L 412.21645694 271.72252857 L 412.0418643 273.06874258 L 411.86184785 274.40141634 L 411.67629777 275.72034498 L 411.48510304 277.02532619 L 411.28815153 278.31616028 L 411.08533003 279.59265017 L 410.8765243 280.85460145 L 410.66161909 282.10182242 L 410.44049824 283.33412413 L 410.21304466 284.55132038 L 409.97914046 285.75322778 L 409.73866691 286.93966579 L 409.49150454 288.11045673 L 409.23753321 289.2654258 L 408.97663209 290.40440117 L 408.70867977 291.52721394 L 408.43355429 292.63369821 L 408.15113319 293.7236911 L 407.86129355 294.79703278 L 407.56391207 295.85356648 L 407.25886511 296.89313855 L 406.94602871 297.91559844 L 406.62527869 298.92079879 L 406.29649069 299.90859539 L 405.9595402 300.87884724 L 405.61430264 301.83141656 L 405.2606534 302.76616883 L 404.8984679 303.68297279 L 404.52762163 304.58170047 L 404.14799023 305.46222722 L 403.75944952 306.32443173 L 403.36187557 307.16819602 L 402.95514475 307.99340549 L 402.53913378 308.79994894 L 402.11371979 309.58771857 L 401.67878037 310.35661 L 401.23419365 311.10652228 L 400.77983831 311.83735792 L 400.31559368 312.54902292 L 399.84133975 313.24142672 L 399.35695729 313.91448229 L 398.86232783 314.5681061 L 398.35733377 315.20221812 L 397.84185841 315.81674187 L 397.31578603 316.41160439 L 396.77900191 316.9867363 L 396.23139241 317.54207175 L 395.67284501 318.07754847 L 395.1032484 318.59310774 L 394.52249247 319.08869445 L 393.93046844 319.56425707 L 393.32706885 320.01974763 L 392.71218766 320.45512178 L 392.08572028 320.87033876 L 391.44756363 321.26536142 L 390.7976162 321.64015621 L 390.13577809 321.99469315 L 389.46195108 322.32894592 L 388.77603866 322.64289176 L 388.07794612 322.93651153 L 387.36758055 323.20978968 L 386.64485096 323.46271428 L 385.90966824 323.69527697 L 385.16194533 323.90747301 L 384.40159715 324.09930122 L 383.62854073 324.270764 L 382.84269525 324.42186736 L 382.04398205 324.55262085 L 381.23232472 324.66303758 L 380.40764913 324.75313423 L 379.5698835 324.822931 L 378.7189584 324.87245166 L 377.85480686 324.90172346 L 376.97736438 324.9107772 L 376.08656895 324.89964717 L 375.18236119 324.86837113 L 374.26468427 324.81699035 L 373.33348405 324.74554953 L 372.38870911 324.65409683 L 371.43031074 324.54268384 L 370.45824304 324.41136557 L 369.47246295 324.26020043 L 368.47293025 324.0892502 L 367.45960768 323.89858004 L 366.4324609 323.68825845 L 365.39145858 323.45835724 L 364.33657242 323.20895155 L 363.2677772 322.94011979 L 362.18505081 322.65194364 L 361.08837427 322.34450802 L 359.97773181 322.01790108 L 358.85311085 321.67221415 L 357.71450208 321.30754175 L 356.56189948 320.92398154 L 355.39530035 320.52163429 L 354.21470532 320.1006039 L 353.02011844 319.66099732 L 351.81154715 319.20292454 L 350.58900233 318.72649859 L 349.35249836 318.23183548 L 348.1020531 317.71905417 L 346.83768794 317.18827656 L 345.55942783 316.63962746 L 344.2673013 316.07323456 L 342.96134048 315.48922836 L 341.64158114 314.8877422 L 340.30806268 314.26891219 L 338.9608282 313.63287719 L 337.59992447 312.97977877 L 336.22540199 312.30976117 L 334.83731497 311.62297131 L 333.4357214 310.91955868 L 332.02068303 310.19967539 L 330.59226536 309.46347606 L 329.15053774 308.71111784 L 327.6955733 307.94276032 L 326.227449 307.15856557 L 324.74624563 306.35869803 L 323.25204786 305.54332449 L 321.74494419 304.71261409 L 320.22502699 303.86673823 L 318.69239251 303.00587056 L 317.14714088 302.13018696 L 315.58937613 301.23986545 L 314.01920617 300.33508619 L 312.43674281 299.41603142 L 310.84210176 298.48288542 L 309.23540263 297.5358345 L 307.61676892 296.57506692 L 305.98632807 295.60077285 L 304.34421138 294.61314437 L 302.69055405 293.61237537 L 301.0254952 292.59866156 L 299.34917782 291.5722004 L 297.66174878 290.53319104 L 295.96335883 289.48183432 L 294.25416259 288.4183327 L 292.53431854 287.34289022 L 290.80398901 286.25571244 L 289.06334016 285.15700645 L 287.31254198 284.04698076 L 285.55176827 282.92584528 L 283.78119662 281.79381129 L 282.00100841 280.65109138 L 280.2113888 279.49789942 L 278.41252666 278.33445048 L 276.60461461 277.16096083 L 274.78784899 275.97764786 L 272.9624298 274.78473005 L 271.12856073 273.58242692 L 269.2864491 272.37095898 L 267.43630584 271.1505477 L 265.57834548 269.92141543 L 263.71278613 268.68378541 L 261.83984942 267.43788165 L 259.95976049 266.18392897 L 258.07274796 264.92215285 L 256.17904393 263.65277949 L 254.27888388 262.37603569 L 252.37250669 261.09214884 L 250.46015459 259.80134684 L 248.54207315 258.50385809 L 246.61851118 257.19991142 L 244.68972076 255.88973608 L 242.75595718 254.57356162 L 240.81747889 253.25161791 L 238.87454748 251.92413508 L 236.9274276 250.59134346 L 234.97638698 249.25347353 L 233.02169633 247.91075591 L 231.06362933 246.56342124 L 229.10246257 245.21170024 L 227.13847551 243.85582356 L 225.17195045 242.4960218 L 223.20317244 241.13252544 L 221.23242926 239.76556482 L 219.26001139 238.39537004 L 217.28621191 237.02217097 L 215.3113265 235.64619717 L 213.33565335 234.26767789 L 211.35949313 232.88684196 L 209.38314891 231.50391781 L 207.40692616 230.11913336 L 205.43113261 228.73271606 L 203.45607829 227.34489276 L 201.48207538 225.95588972 L 199.50943824 224.56593257 L 197.53848328 223.17524622 L 195.56952893 221.78405487 L 193.6028956 220.39258194 L 191.63890557 219.00105002 L 189.67788297 217.60968087 L 187.7201537 216.21869531 L 185.76604539 214.82831327 L 183.81588729 213.43875364 L 181.87001025 212.05023435 L 179.92874661 210.66297221 L 177.99243021 209.27718298 L 176.06139623 207.89308123 L 174.13598118 206.51088039 L 172.21652284 205.13079265 L 170.30336015 203.75302895 L 168.39683317 202.37779893 L 166.497283 201.00531091 L 164.60505172 199.63577183 L 162.72048231 198.26938722 L 160.84391857 196.90636118 L 158.97570509 195.54689632 L 157.11618712 194.19119376 L 155.26571053 192.83945304 L 153.42462175 191.49187213 L 151.59326766 190.14864741 L 149.77199555 188.80997357 L 147.96115301 187.47604363 L 146.1610879 186.14704891 L 144.37214824 184.82317897 L 142.59468215 183.50462159 L 140.82903777 182.19156273 L 139.07556317 180.88418654 L 137.33460632 179.58267527 L 135.60651494 178.28720927 L 133.89163651 176.99796699 L 132.19031811 175.71512489 L 130.50290639 174.43885745 L 128.8297475 173.16933715 L 127.17118697 171.90673442 L 125.52756967 170.65121762 L 123.89923973 169.40295302 L 122.28654042 168.16210479 L 120.68981412 166.92883492 L 119.10940223 165.70330327 L 117.54564508 164.48566748 L 115.99888186 163.276083 L 114.46945051 162.07470303 L 112.95768772 160.88167851 L 111.46392875 159.69715812 L 109.98850744 158.52128823 L 108.53175607 157.35421287 L 107.09400531 156.19607376 L 105.67558415 155.04701026 L 104.27681978 153.90715932 L 102.89803758 152.77665554 L 101.53956096 151.65563108 L 100.20171134 150.54421569 L 98.88480807 149.44253665 L 97.58916831 148.35071881 L 96.31510701 147.26888453 L 95.06293677 146.1971537 L 93.83296783 145.13564367 L 92.62550793 144.08446932 L 91.44086229 143.04374299 L 90.27933349 142.01357446 L 89.1412214 140.99407099 L 88.02682314 139.98533727 L 86.93643297 138.98747543 L 85.87034221 138.000585 L 84.82883922 137.02476294 L 83.81220924 136.06010362 L 82.82073439 135.10669881 L 81.85469358 134.16463765 L 80.91436239 133.23400668 L 80.00001308 132.31488984 L 79.11191444 131.40736843 L 78.25033177 130.5115211 L 77.41552679 129.6274239 L 76.60775756 128.75515024 L 75.82727844 127.89477089 L 75.07433999 127.04635398 L 74.34918892 126.20996501 L 73.65206802 125.38566682 L 72.98321609 124.57351963 L 72.34286788 123.77358102 L 71.731254 122.98590594 L 71.1486009 122.21054668 L 70.59513075 121.44755293 L 70.07106144 120.69697172 L 69.57660645 119.95884749 L 69.11197485 119.23322203 L 68.67737119 118.52013453 L 68.27299546 117.81962157 L 67.89904305 117.13171712 L 67.55570466 116.45645257 L 67.24316624 115.7938567 L 66.96160896 115.14395574 L 66.71120914 114.5067733 L 66.4921382 113.88233048 L 66.30456259 113.2706458 L 66.14864375 112.67173523 L 66.02453806 112.08561223 L 65.93239677 111.51228773 L 65.87236598 110.95177015 L 65.84458656 110.40406542 L 65.84919411 109.86917697 L 65.88631893 109.34710579 L 65.95608596 108.83785039 L 66.05861472 108.34140686 L 66.19401929 107.85776885 L 66.36240825 107.38692761 L 66.56388464 106.928872 L 66.79854594 106.48358848 L 67.066484 106.05106119 L 67.36778501 105.6312719 L 67.70252947 105.22420007 L 68.07079215 104.82982285 L 68.47264204 104.4481151 L 68.90814233 104.07904944 L 69.3773504 103.72259621 L 69.88031772 103.37872356 L 70.41708989 103.04739741 L 70.98770658 102.72858152 L 71.59220148 102.42223746 L 72.23060232 102.1283247 L 72.9029308 101.84680056 L 73.60920259 101.5776203 L 74.3494273 101.32073709 L 75.12360845 101.07610207 L 75.93174347 100.84366435 L 76.77382365 100.62337105 L 77.64983413 100.41516733 L 78.55975392 100.21899638 L 79.50355583 100.03479949 L 80.48120646 99.86251608 L 81.49266625 99.70208366 L 82.53788937 99.55343793 L 83.6168238 99.41651278 L 84.72941126 99.29124031 L 85.87558723 99.17755086 L 87.05528093 99.07537305 L 88.26841532 98.9846338 L 89.5149071 98.90525836 L 90.79466669 98.83717035 L 92.10759825 98.78029177 L 93.45359966 98.73454303 L 94.83256253 98.699843 L 96.24437222 98.67610903 L 97.6889078 98.66325697 L 99.16604209 98.66120123 L 100.67564166 98.66985477 L 102.21756683 98.68912917 L 103.79167168 98.71893461 L 105.39780408 98.75917998 L 107.03580565 98.80977284 L 108.70551184 98.87061948 L 110.4067519 98.94162496 L 112.13934891 99.02269313 L 113.90311978 99.11372665 L 115.69787531 99.21462707 L 117.52342015 99.3252948 L 119.37955288 99.4456292 L 121.26606599 99.57552855 L 123.18274592 99.71489016 L 125.1293731 99.86361033 L 127.10572194 100.02158444 L 129.1115609 100.18870695 L 131.14665247 100.36487144 L 133.21075325 100.54997064 L 135.30361395 100.74389649 L 137.42497944 100.94654013 L 139.57458877 101.15779196 L 141.75217521 101.3775417 L 143.95746629 101.60567835 L 146.19018384 101.84209029 L 148.45004403 102.0866653 L 150.73675741 102.33929058 L 153.05002892 102.59985276 L 155.38955801 102.868238 L 157.7550386 103.14433196 L 160.14615918 103.42801989 L 162.56260282 103.71918659 L 165.00404727 104.01771653 L 167.47016496 104.3234938 L 169.96062306 104.6364022 L 172.47508355 104.95632528 L 175.01320326 105.28314629 L 177.57463393 105.61674834 L 180.15902226 105.95701431 L 182.76600998 106.30382698 L 185.39523388 106.65706898 L 188.04632589 107.01662289 L 190.71891314 107.38237124 L 193.41261803 107.75419654 L 196.12705825 108.13198133 L 198.86184689 108.51560819 L 201.6165925 108.90495979 L 204.39089911 109.2999189 L 207.18436636 109.70036847 L 209.99658952 110.10619159 L 212.82715958 110.51727157 L 215.67566332 110.93349196 L 218.54168336 111.35473658 L 221.42479826 111.78088954 L 224.32458258 112.21183529 L 227.24060696 112.64745864 L 230.17243817 113.08764476 L 233.11963922 113.53227927 L 236.08176942 113.98124822 L 239.05838443 114.43443813 L 242.04903641 114.89173605 L 245.05327402 115.35302952 L 248.07064254 115.81820666 L 251.10068397 116.28715619 L 254.14293706 116.7597674 L 257.19693743 117.23593028 L 260.26221764 117.71553542 L 263.33830728 118.19847416 L 266.42473305 118.68463852 L 269.52101884 119.17392128 L 272.62668583 119.66621598 L 275.74125257 120.16141697 L 278.86423508 120.65941939 L 281.99514689 121.16011925 L 285.1334992 121.6634134 L 288.27880092 122.16919961 L 291.43055877 122.67737652 L 294.58827738 123.18784374 L 297.75145937 123.70050182 L 300.91960546 124.21525229 L 304.09221455 124.73199767 L 307.2687838 125.25064151 L 310.44880874 125.7710884 L 313.63178337 126.29324398 L 316.81720024 126.81701499 L 320.00455054 127.34230923 L 323.19332421 127.86903567 L 326.38301005 128.39710437 L 329.57309577 128.92642656 L 332.76306811 129.45691465 L 335.95241297 129.98848222 L 339.14061545 130.52104407 L 342.32715997 131.05451621 L 345.51153039 131.58881588 L 348.69321008 132.12386159 L 351.87168202 132.65957309 L 355.04642891 133.19587144 L 358.21693327 133.73267896 L 361.38267752 134.26991929 L 364.5431441 134.80751741 L 367.69781554 135.34539959 L 370.8461746 135.88349348 L 373.98770435 136.42172806 L 377.12188823 136.96003367 L 380.24821024 137.49834206 L 383.36615493 138.03658633 L 386.47520759 138.57470099 L 389.5748543 139.11262194 L 392.66458205 139.65028651 L 395.7438788 140.18763343 L 398.81223366 140.72460286 L 401.86913689 141.26113641 L 404.91408008 141.79717711 L 407.9465562 142.33266943 L 410.96605971 142.86755932 L 413.97208669 143.40179415 L 416.96413486 143.93532278 L 419.94170379 144.46809549 L 422.90429487 145.00006408 L 425.85141153 145.53118179 L 428.78255924 146.06140332 L 431.69724566 146.59068486 L 434.59498072 147.11898407 L 437.47527672 147.64626009 L 440.33764843 148.17247354 L 443.18161315 148.69758648 L 446.00669088 149.22156249 L 448.81240431 149.74436659 L 451.59827902 150.26596529 L 454.36384349 150.78632656 L 457.10862925 151.30541984 L 459.83217094 151.82321603 L 462.53400639 152.33968748 L 465.21367677 152.85480803 L 467.87072662 153.36855292 L 470.50470395 153.88089888 L 473.11516037 154.39182404 L 475.70165112 154.90130801 L 478.26373521 155.40933178 L 480.80097547 155.91587779 L 483.31293866 156.42092988 L 485.79919553 156.92447329 L 488.25932096 157.42649468 L 490.69289395 157.92698207 L 493.09949782 158.42592487 L 495.47872018 158.92331386 L 497.8301531 159.41914116 L 500.15339314 159.91340026 L 502.44804144 160.40608597 L 504.71370383 160.89719444 L 506.94999084 161.38672311 L 509.15651786 161.87467074 L 511.33290517 162.36103737 L 513.478778 162.84582431 L 515.59376666 163.32903413 L 517.67750655 163.81067064 L 519.72963829 164.29073891 L 521.74980774 164.76924519 L 523.73766614 165.24619696 L 525.69287008 165.72160286 L 527.61508166 166.19547272 L 529.50396852 166.66781751 L 531.35920391 167.13864935 L 533.18046673 167.60798147 L 534.96744164 168.0758282 L 536.71981911 168.54220496 L 538.43729545 169.00712823 L 540.11957291 169.47061554 L 541.76635973 169.93268545 L 543.37737016 170.39335753 L 544.95232459 170.85265233 L 546.49094954 171.31059138 L 547.99297775 171.76719715 L 549.45814823 172.22249305 L 550.8862063 172.6765034 L 552.27690364 173.12925339 L 553.62999836 173.58076908 L 554.94525503 174.0310774 L 556.22244475 174.48020607 L 557.46134515 174.92818362 L 558.66174048 175.37503938 L 559.82342166 175.82080339 L 560.94618626 176.26550648 L 562.0298386 176.70918013 L 563.07418977 177.15185655 L 564.07905768 177.59356859 L 565.04426707 178.03434976 L 565.96964954 178.47423415 L 566.85504365 178.91325648 L 567.70029488 179.351452 L 568.50525568 179.78885654 L 569.26978552 180.22550641 L 569.99375091 180.66143844 L 570.67702542 181.09668991 L 571.31948968 181.53129855 L 571.92103148 181.96530251 L 572.48154571 182.39874032 L 573.00093443 182.83165088 L 573.47910687 183.26407345 L 573.91597945 183.69604757 L 574.31147582 184.1276131 L 574.66552683 184.55881013 L 574.97807059 184.98967903 L 575.24905245 185.42026034 L 575.47842504 185.85059481 L 575.66614824 186.28072333 L 575.81218922 186.71068694 L 575.91652246 187.14052676 L 575.9791297 187.57028403 L 576 188" fill="none" stroke="#4c78a8" stroke-width="1.5"/><line x1="56" y1="352" x2="616" y2="352" stroke="#999999" stroke-width="1"/><line x1="56" y1="352" x2="56" y2="356" stroke="#999999" stroke-width="1"/><text x="56" y="368" font-family="system-ui, -apple-system, sans-serif" font-size="11" fill="#333333" text-anchor="middle" dominant-baseline="hanging">-6</text><line x1="136" y1="352" x2="136" y2="356" stroke="#999999" stroke-width="1"/><text x="136" y="368" font-family="system-ui, -apple-system, sans-serif" font-size="11" fill="#333333" text-anchor="middle" dominant-baseline="hanging">-4</text><line x1="216" y1="352" x2="216" y2="356" stroke="#999999" stroke-width="1"/><text x="216" y="368" font-family="system-ui, -apple-system, sans-serif" font-size="11" fill="#333333" text-anchor="middle" dominant-baseline="hanging">-2</text><line x1="296" y1="352" x2="296" y2="356" stroke="#999999" stroke-width="1"/><text x="296" y="368" font-family="system-ui, -apple-system, sans-serif" font-size="11" fill="#333333" text-anchor="middle" dominant-baseline="hanging">0</text><line x1="376" y1="352" x2="376" y2="356" stroke="#999999" stroke-width="1"/><text x="376" y="368" font-family="system-ui, -apple-system, sans-serif" font-size="11" fill="#333333" text-anchor="middle" dominant-baseline="hanging">2</text><line x1="456" y1="352" x2="456" y2="356" stroke="#999999" stroke-width="1"/><text x="456" y="368" font-family="system-ui, -apple-system, sans-serif" font-size="11" fill="#333333" text-anchor="middle" dominant-baseline="hanging">4</text><line x1="536" y1="352" x2="536" y2="356" stroke="#999999" stroke-width="1"/><text x="536" y="368" font-family="system-ui, -apple-system, sans-serif" font-size="11" fill="#333333" text-anchor="middle" dominant-baseline="hanging">6</text><line x1="616" y1="352" x2="616" y2="356" stroke="#999999" stroke-width="1"/><text x="616" y="368" font-family="system-ui, -apple-system, sans-serif" font-size="11" fill="#333333" text-anchor="middle" dominant-baseline="hanging">8</text><text x="336" y="384" font-family="system-ui, -apple-system, sans-serif" font-size="12" fill="#333333" text-anchor="middle" dominant-baseline="hanging">x</text><line x1="56" y1="24" x2="56" y2="352" stroke="#999999" stroke-width="1"/><line x1="52" y1="352" x2="56" y2="352" stroke="#999999" stroke-width="1"/><text x="48" y="352" font-family="system-ui, -apple-system, sans-serif" font-size="11" fill="#333333" text-anchor="end" dominant-baseline="middle">-8</text><line x1="52" y1="311" x2="56" y2="311" stroke="#999999" stroke-width="1"/><text x="48" y="311" font-family="system-ui, -apple-system, sans-serif" font-size="11" fill="#333333" text-anchor="end" dominant-baseline="middle">-6</text><line x1="52" y1="270" x2="56" y2="270" stroke="#999999" stroke-width="1"/><text x="48" y="270" font-family="system-ui, -apple-system, sans-serif" font-size="11" fill="#333333" text-anchor="end" dominant-baseline="middle">-4</text><line x1="52" y1="229" x2="56" y2="229" stroke="#999999" stroke-width="1"/><text x="48" y="229" font-family="system-ui, -apple-system, sans-serif" font-size="11" fill="#333333" text-anchor="end" dominant-baseline="middle">-2</text><line x1="52" y1="188" x2="56" y2="188" stroke="#999999" stroke-width="1"/><text x="48" y="188" font-family="system-ui, -apple-system, sans-serif" font-size="11" fill="#333333" text-anchor="end" dominant-baseline="middle">0</text><line x1="52" y1="147" x2="56" y2="147" stroke="#999999" stroke-width="1"/><text x="48" y="147" font-family="system-ui, -apple-system, sans-serif" font-size="11" fill="#333333" text-anchor="end" dominant-baseline="middle">2</text><line x1="52" y1="106" x2="56" y2="106" stroke="#999999" stroke-width="1"/><text x="48" y="106" font-family="system-ui, -apple-system, sans-serif" font-size="11" fill="#333333" text-anchor="end" dominant-baseline="middle">4</text><line x1="52" y1="65" x2="56" y2="65" stroke="#999999" stroke-width="1"/><text x="48" y="65" font-family="system-ui, -apple-system, sans-serif" font-size="11" fill="#333333" text-anchor="end" dominant-baseline="middle">6</text><line x1="52" y1="24" x2="56" y2="24" stroke="#999999" stroke-width="1"/><text x="48" y="24" font-family="system-ui, -apple-system, sans-serif" font-size="11" fill="#333333" text-anchor="end" dominant-baseline="middle">8</text><text x="16" y="188" font-family="system-ui, -apple-system, sans-serif" font-size="12" fill="#333333" text-anchor="middle" dominant-baseline="alphabetic" transform="rotate(-90 16 188)">y</text></svg>
