<svg xmlns="http://www.w3.org/2000/svg" viewBox="0 0 640 400" width="640" height="400" role="img" aria-label="Quarterly revenue (corporate brand, dark)" aria-describedby="glyph-desc"><desc id="glyph-desc">Quarterly revenue (corporate brand, dark)</desc><metadata id="glyph-provenance"><![CDATA[{"format":"glyph-provenance/1","specHash":"f822b709af5434406b8a27720fdd798b4a00d517970e3d8827b06098db49e69d","dataHash":"fb507c89b7b884e9b5cdc11939092dc039399abd73418ffffb9142e52f5bf8fe","libraryVersion":"0.0.0","rowCount":24,"scaleDigest":"a7421dadc52acfa84c99d899951487adc2f42f87c513c3405b252d8452c04e6d"}]]></metadata><rect x="0" y="0" width="640" height="400" fill="#0b1220"/><text x="320" y="16" font-family="system-ui, -apple-system, sans-serif" font-size="14" fill="#f1f5f9" text-anchor="middle" dominant-baseline="middle">Quarterly revenue (corporate brand, dark)</text><line x1="56" y1="352" x2="616" y2="352" stroke="#e6e6e6" stroke-width="1"/><line x1="56" y1="311" x2="616" y2="311" stroke="#e6e6e6" stroke-width="1"/><line x1="56" y1="270" x2="616" y2="270" stroke="#e6e6e6" stroke-width="1"/><line x1="56" y1="229" x2="616" y2="229" stroke="#e6e6e6" stroke-width="1"/><line x1="56" y1="188" x2="616" y2="188" stroke="#e6e6e6" stroke-width="1"/><line x1="56" y1="147" x2="616" y2="147" stroke="#e6e6e6" stroke-width="1"/><line x1="56" y1="106" x2="616" y2="106" stroke="#e6e6e6" stroke-width="1"/><line x1="56" y1="65" x2="616" y2="65" stroke="#e6e6e6" stroke-width="1"/><line x1="56" y1="24" x2="616" y2="24" stroke="#e6e6e6" stroke-width="1"/><rect x="57.16666667" y="147" width="21" height="205" fill="#1d4ed8"/><rect x="80.5" y="119.34583096" width="21" height="232.65416904" fill="#1d4ed8"/><rect x="103.83333333" y="93.74264512" width="21" height="258.25735488" fill="#1d4ed8"/><rect x="127.16666667" y="72.08931366" width="21" height="279.91068634" fill="#1d4ed8"/><rect x="150.5" y="55.99176511" width="21" height="296.00823489" fill="#1d4ed8"/><rect x="173.83333333" y="46.64388101" width="21" height="305.35611899" fill="#1d4ed8"/><rect x="197.16666667" y="44.73895116" width="21" height="307.26104884" fill="#1d4ed8"/><rect x="220.5" y="50.41825548" width="21" height="301.58174452" fill="#1d4ed8"/><rect x="243.83333333" y="63.26058597" width="21" height="288.73941403" fill="#1d4ed8"/><rect x="267.16666667" y="82.31348571" width="21" height="269.68651429" fill="#1d4ed8"/><rect x="290.5" y="106.16388829" width="21" height="245.83611171" fill="#1d4ed8"/><rect x="313.83333333" y="133.04291847" width="21" height="218.95708153" fill="#1d4ed8"/><rect x="337.16666667" y="160.95708153" width="21" height="191.04291847" fill="#1d4ed8"/><rect x="360.5" y="187.83611171" width="21" height="164.16388829" fill="#1d4ed8"/><rect x="383.83333333" y="211.68651429" width="21" height="140.31348571" fill="#1d4ed8"/><rect x="407.16666667" y="230.73941403" width="21" height="121.26058597" fill="#1d4ed8"/><rect x="430.5" y="243.58174452" width="21" height="108.41825548" fill="#1d4ed8"/><rect x="453.83333333" y="249.26104884" width="21" height="102.73895116" fill="#1d4ed8"/><rect x="477.16666667" y="247.35611899" width="21" height="104.64388101" fill="#1d4ed8"/><rect x="500.5" y="238.00823489" width="21" height="113.99176511" fill="#1d4ed8"/><rect x="523.83333333" y="221.91068634" width="21" height="130.08931366" fill="#1d4ed8"/><rect x="547.16666667" y="200.25735488" width="21" height="151.74264512" fill="#1d4ed8"/><rect x="570.5" y="174.65416904" width="21" height="177.34583096" fill="#1d4ed8"/><rect x="593.83333333" y="147" width="21" height="205" fill="#1d4ed8"/><line x1="56" y1="352" x2="616" y2="352" stroke="#999999" stroke-width="1"/><line x1="67.66666667" y1="352" x2="67.66666667" y2="356" stroke="#999999" stroke-width="1"/><text x="67.66666667" y="366" font-family="system-ui, -apple-system, sans-serif" font-size="11" fill="#f1f5f9" text-anchor="end" dominant-baseline="middle" transform="rotate(-45 67.66666667 366)">0</text><line x1="91" y1="352" x2="91" y2="356" stroke="#999999" stroke-width="1"/><text x="91" y="366" font-family="system-ui, -apple-system, sans-serif" font-size="11" fill="#f1f5f9" text-anchor="end" dominant-baseline="middle" transform="rotate(-45 91 366)">0.2731819698773733</text><line x1="114.33333333" y1="352" x2="114.33333333" y2="356" stroke="#999999" stroke-width="1"/><text x="114.33333333" y="366" font-family="system-ui, -apple-system, sans-serif" font-size="11" fill="#f1f5f9" text-anchor="end" dominant-baseline="middle" transform="rotate(-45 114.33333333 366)">0.5463639397547466</text><line x1="137.66666666999998" y1="352" x2="137.66666666999998" y2="356" stroke="#999999" stroke-width="1"/><text x="137.66666666999998" y="366" font-family="system-ui, -apple-system, sans-serif" font-size="11" fill="#f1f5f9" text-anchor="end" dominant-baseline="middle" transform="rotate(-45 137.66666666999998 366)">0.8195459096321199</text><line x1="161" y1="352" x2="161" y2="356" stroke="#999999" stroke-width="1"/><text x="161" y="366" font-family="system-ui, -apple-system, sans-serif" font-size="11" fill="#f1f5f9" text-anchor="end" dominant-baseline="middle" transform="rotate(-45 161 366)">1.0927278795094932</text><line x1="184.33333333" y1="352" x2="184.33333333" y2="356" stroke="#999999" stroke-width="1"/><text x="184.33333333" y="366" font-family="system-ui, -apple-system, sans-serif" font-size="11" fill="#f1f5f9" text-anchor="end" dominant-baseline="middle" transform="rotate(-45 184.33333333 366)">1.3659098493868664</text><line x1="207.66666667" y1="352" x2="207.66666667" y2="356" stroke="#999999" stroke-width="1"/><text x="207.66666667" y="366" font-family="system-ui, -apple-system, sans-serif" font-size="11" fill="#f1f5f9" text-anchor="end" dominant-baseline="middle" transform="rotate(-45 207.66666667 366)">1.6390918192642399</text><line x1="231" y1="352" x2="231" y2="356" stroke="#999999" stroke-width="1"/><text x="231" y="366" font-family="system-ui, -apple-system, sans-serif" font-size="11" fill="#f1f5f9" text-anchor="end" dominant-baseline="middle" transform="rotate(-45 231 366)">1.9122737891416133</text><line x1="254.33333333" y1="352" x2="254.33333333" y2="356" stroke="#999999" stroke-width="1"/><text x="254.33333333" y="366" font-family="system-ui, -apple-system, sans-serif" font-size="11" fill="#f1f5f9" text-anchor="end" dominant-baseline="middle" transform="rotate(-45 254.33333333 366)">2.1854557590189865</text><line x1="277.66666667" y1="352" x2="277.66666667" y2="356" stroke="#999999" stroke-width="1"/><text x="277.66666667" y="366" font-family="system-ui, -apple-system, sans-serif" font-size="11" fill="#f1f5f9" text-anchor="end" dominant-baseline="middle" transform="rotate(-45 277.66666667 366)">2.4586377288963597</text><line x1="301" y1="352" x2="301" y2="356" stroke="#999999" stroke-width="1"/><text x="301" y="366" font-family="system-ui, -apple-system, sans-serif" font-size="11" fill="#f1f5f9" text-anchor="end" dominant-baseline="middle" transform="rotate(-45 301 366)">2.731819698773733</text><line x1="324.33333333" y1="352" x2="324.33333333" y2="356" stroke="#999999" stroke-width="1"/><text x="324.33333333" y="366" font-family="system-ui, -apple-system, sans-serif" font-size="11" fill="#f1f5f9" text-anchor="end" dominant-baseline="middle" transform="rotate(-45 324.33333333 366)">3.0050016686511065</text><line x1="347.66666667" y1="352" x2="347.66666667" y2="356" stroke="#999999" stroke-width="1"/><text x="347.66666667" y="366" font-family="system-ui, -apple-system, sans-serif" font-size="11" fill="#f1f5f9" text-anchor="end" dominant-baseline="middle" transform="rotate(-45 347.66666667 366)">3.2781836385284797</text><line x1="371" y1="352" x2="371" y2="356" stroke="#999999" stroke-width="1"/><text x="371" y="366" font-family="system-ui, -apple-system, sans-serif" font-size="11" fill="#f1f5f9" text-anchor="end" dominant-baseline="middle" transform="rotate(-45 371 366)">3.551365608405853</text><line x1="394.33333333" y1="352" x2="394.33333333" y2="356" stroke="#999999" stroke-width="1"/><text x="394.33333333" y="366" font-family="system-ui, -apple-system, sans-serif" font-size="11" fill="#f1f5f9" text-anchor="end" dominant-baseline="middle" transform="rotate(-45 394.33333333 366)">3.8245475782832266</text><line x1="417.66666667" y1="352" x2="417.66666667" y2="356" stroke="#999999" stroke-width="1"/><text x="417.66666667" y="366" font-family="system-ui, -apple-system, sans-serif" font-size="11" fill="#f1f5f9" text-anchor="end" dominant-baseline="middle" transform="rotate(-45 417.66666667 366)">4.0977295481606</text><line x1="441" y1="352" x2="441" y2="356" stroke="#999999" stroke-width="1"/><text x="441" y="366" font-family="system-ui, -apple-system, sans-serif" font-size="11" fill="#f1f5f9" text-anchor="end" dominant-baseline="middle" transform="rotate(-45 441 366)">4.370911518037973</text><line x1="464.33333333" y1="352" x2="464.33333333" y2="356" stroke="#999999" stroke-width="1"/><text x="464.33333333" y="366" font-family="system-ui, -apple-system, sans-serif" font-size="11" fill="#f1f5f9" text-anchor="end" dominant-baseline="middle" transform="rotate(-45 464.33333333 366)">4.644093487915346</text><line x1="487.66666667" y1="352" x2="487.66666667" y2="356" stroke="#999999" stroke-width="1"/><text x="487.66666667" y="366" font-family="system-ui, -apple-system, sans-serif" font-size="11" fill="#f1f5f9" text-anchor="end" dominant-baseline="middle" transform="rotate(-45 487.66666667 366)">4.917275457792719</text><line x1="511" y1="352" x2="511" y2="356" stroke="#999999" stroke-width="1"/><text x="511" y="366" font-family="system-ui, -apple-system, sans-serif" font-size="11" fill="#f1f5f9" text-anchor="end" dominant-baseline="middle" transform="rotate(-45 511 366)">5.1904574276700925</text><line x1="534.33333333" y1="352" x2="534.33333333" y2="356" stroke="#999999" stroke-width="1"/><text x="534.33333333" y="366" font-family="system-ui, -apple-system, sans-serif" font-size="11" fill="#f1f5f9" text-anchor="end" dominant-baseline="middle" transform="rotate(-45 534.33333333 366)">5.463639397547466</text><line x1="557.66666667" y1="352" x2="557.66666667" y2="356" stroke="#999999" stroke-width="1"/><text x="557.66666667" y="366" font-family="system-ui, -apple-system, sans-serif" font-size="11" fill="#f1f5f9" text-anchor="end" dominant-baseline="middle" transform="rotate(-45 557.66666667 366)">5.73682136742484</text><line x1="581" y1="352" x2="581" y2="356" stroke="#999999" stroke-width="1"/><text x="581" y="366" font-family="system-ui, -apple-system, sans-serif" font-size="11" fill="#f1f5f9" text-anchor="end" dominant-baseline="middle" transform="rotate(-45 581 366)">6.010003337302213</text><line x1="604.33333333" y1="352" x2="604.33333333" y2="356" stroke="#999999" stroke-width="1"/><text x="604.33333333" y="366" font-family="system-ui, -apple-system, sans-serif" font-size="11" fill="#f1f5f9" text-anchor="end" dominant-baseline="middle" transform="rotate(-45 604.33333333 366)">6.283185307179586</text><text x="336" y="412" font-family="system-ui, -apple-system, sans-serif" font-size="12" fill="#f1f5f9" text-anchor="middle" dominant-baseline="hanging">x</text><line x1="56" y1="24" x2="56" y2="352" stroke="#999999" stroke-width="1"/><line x1="52" y1="352" x2="56" y2="352" stroke="#999999" stroke-width="1"/><text x="48" y="352" font-family="system-ui, -apple-system, sans-serif" font-size="11" fill="#f1f5f9" text-anchor="end" dominant-baseline="middle">0</text><line x1="52" y1="311" x2="56" y2="311" stroke="#999999" stroke-width="1"/><text x="48" y="311" font-family="system-ui, -apple-system, sans-serif" font-size="11" fill="#f1f5f9" text-anchor="end" dominant-baseline="middle">2</text><line x1="52" y1="270" x2="56" y2="270" stroke="#999999" stroke-width="1"/><text x="48" y="270" font-family="system-ui, -apple-system, sans-serif" font-size="11" fill="#f1f5f9" text-anchor="end" dominant-baseline="middle">4</text><line x1="52" y1="229" x2="56" y2="229" stroke="#999999" stroke-width="1"/><text x="48" y="229" font-family="system-ui, -apple-system, sans-serif" font-size="11" fill="#f1f5f9" text-anchor="end" dominant-baseline="middle">6</text><line x1="52" y1="188" x2="56" y2="188" stroke="#999999" stroke-width="1"/><text x="48" y="188" font-family="system-ui, -apple-system, sans-serif" font-size="11" fill="#f1f5f9" text-anchor="end" dominant-baseline="middle">8</text><line x1="52" y1="147" x2="56" y2="147" stroke="#999999" stroke-width="1"/><text x="48" y="147" font-family="system-ui, -apple-system, sans-serif" font-size="11" fill="#f1f5f9" text-anchor="end" dominant-baseline="middle">10</text><line x1="52" y1="106" x2="56" y2="106" stroke="#999999" stroke-width="1"/><text x="48" y="106" font-family="system-ui, -apple-system, sans-serif" font-size="11" fill="#f1f5f9" text-anchor="end" dominant-baseline="middle">12</text><line x1="52" y1="65" x2="56" y2="65" stroke="#999999" stroke-width="1"/><text x="48" y="65" font-family="system-ui, -apple-system, sans-serif" font-size="11" fill="#f1f5f9" text-anchor="end" dominant-baseline="middle">14</text><line x1="52" y1="24" x2="56" y2="24" stroke="#999999" stroke-width="1"/><text x="48" y="24" font-family="system-ui, -apple-system, sans-serif" font-size="11" fill="#f1f5f9" text-anchor="end" dominant-baseline="middle">16</text><text x="16" y="188" font-family="system-ui, -apple-system, sans-serif" font-size="12" fill="#f1f5f9" text-anchor="middle" dominant-baseline="alphabetic" transform="rotate(-90 16 188)">y</text></svg>
