<svg xmlns="http://www.w3.org/2000/svg" viewBox="0 0 800 600" width="800" height="600" role="img" aria-label="Glyph chart" aria-describedby="glyph-desc"><desc id="glyph-desc">Glyph chart</desc><defs><radialGradient id="g-skin" cx="50%" cy="50%" r="60%"><stop offset="0%" stop-color="#fde68a" stop-opacity="1"/><stop offset="60%" stop-color="#d97706" stop-opacity="1"/><stop offset="100%" stop-color="#451a03" stop-opacity="1"/></radialGradient><radialGradient id="g-iris" cx="50%" cy="50%" r="50%"><stop offset="0%" stop-color="#0c4a6e" stop-opacity="0.95"/><stop offset="60%" stop-color="#0284c7" stop-opacity="0.95"/><stop offset="100%" stop-color="#7dd3fc" stop-opacity="0.95"/></radialGradient><radialGradient id="g-iris-base" cx="50%" cy="50%" r="55%"><stop offset="0%" stop-color="#0c4a6e" stop-opacity="1"/><stop offset="100%" stop-color="#082f49" stop-opacity="1"/></radialGradient><radialGradient id="g-sclera" cx="50%" cy="40%" r="60%"><stop offset="0%" stop-color="#fef3c7" stop-opacity="1"/><stop offset="70%" stop-color="#fde9b0" stop-opacity="1"/><stop offset="100%" stop-color="#d97706" stop-opacity="1"/></radialGradient></defs><rect x="0" y="0" width="800" height="600" fill="transparent"/><rect x="0" y="0" width="800" height="600" fill="#1a0f0a"/><g transform="translate(0.000, 0.000)"><path d="M 0 0 L 800 0 L 800 600 L 0 600 Z" fill="url(#g-skin)" stroke="none"/></g><g transform="translate(0.000, 0.000)"><path d="M 180 300 Q 400 140, 620 300 Q 400 460, 180 300 Z" fill="url(#g-sclera)" stroke="#3a2a14" stroke-width="2"/></g><g transform="translate(400.000, 300.000)"><circle cx="0" cy="0" r="130" fill="url(#g-iris-base)"/></g><g transform="translate(400.000, 300.000)"><polyline points="50,0 130,0" fill="none" stroke="url(#g-iris)" stroke-width="1.1"/></g><g transform="translate(400.000, 300.000)"><polyline points="49.24,8.68 124.09,21.88" fill="none" stroke="url(#g-iris)" stroke-width="1.1"/></g><g transform="translate(400.000, 300.000)"><polyline points="46.98,17.1 114.64,41.73" fill="none" stroke="url(#g-iris)" stroke-width="1.1"/></g><g transform="translate(400.000, 300.000)"><polyline points="43.3,25 112.58,65" fill="none" stroke="url(#g-iris)" stroke-width="1.1"/></g><g transform="translate(400.000, 300.000)"><polyline points="38.3,32.14 96.52,80.99" fill="none" stroke="url(#g-iris)" stroke-width="1.1"/></g><g transform="translate(400.000, 300.000)"><polyline points="32.14,38.3 78.42,93.46" fill="none" stroke="url(#g-iris)" stroke-width="1.1"/></g><g transform="translate(400.000, 300.000)"><polyline points="25,43.3 65,112.58" fill="none" stroke="url(#g-iris)" stroke-width="1.1"/></g><g transform="translate(400.000, 300.000)"><polyline points="17.1,46.98 43.09,118.4" fill="none" stroke="url(#g-iris)" stroke-width="1.1"/></g><g transform="translate(400.000, 300.000)"><polyline points="8.68,49.24 21.19,120.15" fill="none" stroke="url(#g-iris)" stroke-width="1.1"/></g><g transform="translate(400.000, 300.000)"><polyline points="0,50 0,130" fill="none" stroke="url(#g-iris)" stroke-width="1.1"/></g><g transform="translate(400.000, 300.000)"><polyline points="-8.68,49.24 -21.88,124.09" fill="none" stroke="url(#g-iris)" stroke-width="1.1"/></g><g transform="translate(400.000, 300.000)"><polyline points="-17.1,46.98 -41.73,114.64" fill="none" stroke="url(#g-iris)" stroke-width="1.1"/></g><g transform="translate(400.000, 300.000)"><polyline points="-25,43.3 -65,112.58" fill="none" stroke="url(#g-iris)" stroke-width="1.1"/></g><g transform="translate(400.000, 300.000)"><polyline points="-32.14,38.3 -80.99,96.52" fill="none" stroke="url(#g-iris)" stroke-width="1.1"/></g><g transform="translate(400.000, 300.000)"><polyline points="-38.3,32.14 -93.46,78.42" fill="none" stroke="url(#g-iris)" stroke-width="1.1"/></g><g transform="translate(400.000, 300.000)"><polyline points="-43.3,25 -112.58,65" fill="none" stroke="url(#g-iris)" stroke-width="1.1"/></g><g transform="translate(400.000, 300.000)"><polyline points="-46.98,17.1 -118.4,43.09" fill="none" stroke="url(#g-iris)" stroke-width="1.1"/></g><g transform="translate(400.000, 300.000)"><polyline points="-49.24,8.68 -120.15,21.19" fill="none" stroke="url(#g-iris)" stroke-width="1.1"/></g><g transform="translate(400.000, 300.000)"><polyline points="-50,0 -130,0" fill="none" stroke="url(#g-iris)" stroke-width="1.1"/></g><g transform="translate(400.000, 300.000)"><polyline points="-49.24,-8.68 -124.09,-21.88" fill="none" stroke="url(#g-iris)" stroke-width="1.1"/></g><g transform="translate(400.000, 300.000)"><polyline points="-46.98,-17.1 -114.64,-41.73" fill="none" stroke="url(#g-iris)" stroke-width="1.1"/></g><g transform="translate(400.000, 300.000)"><polyline points="-43.3,-25 -112.58,-65" fill="none" stroke="url(#g-iris)" stroke-width="1.1"/></g><g transform="translate(400.000, 300.000)"><polyline points="-38.3,-32.14 -96.52,-80.99" fill="none" stroke="url(#g-iris)" stroke-width="1.1"/></g><g transform="translate(400.000, 300.000)"><polyline points="-32.14,-38.3 -78.42,-93.46" fill="none" stroke="url(#g-iris)" stroke-width="1.1"/></g><g transform="translate(400.000, 300.000)"><polyline points="-25,-43.3 -65,-112.58" fill="none" stroke="url(#g-iris)" stroke-width="1.1"/></g><g transform="translate(400.000, 300.000)"><polyline points="-17.1,-46.98 -43.09,-118.4" fill="none" stroke="url(#g-iris)" stroke-width="1.1"/></g><g transform="translate(400.000, 300.000)"><polyline points="-8.68,-49.24 -21.19,-120.15" fill="none" stroke="url(#g-iris)" stroke-width="1.1"/></g><g transform="translate(400.000, 300.000)"><polyline points="0,-50 0,-130" fill="none" stroke="url(#g-iris)" stroke-width="1.1"/></g><g transform="translate(400.000, 300.000)"><polyline points="8.68,-49.24 21.88,-124.09" fill="none" stroke="url(#g-iris)" stroke-width="1.1"/></g><g transform="translate(400.000, 300.000)"><polyline points="17.1,-46.98 41.73,-114.64" fill="none" stroke="url(#g-iris)" stroke-width="1.1"/></g><g transform="translate(400.000, 300.000)"><polyline points="25,-43.3 65,-112.58" fill="none" stroke="url(#g-iris)" stroke-width="1.1"/></g><g transform="translate(400.000, 300.000)"><polyline points="32.14,-38.3 80.99,-96.52" fill="none" stroke="url(#g-iris)" stroke-width="1.1"/></g><g transform="translate(400.000, 300.000)"><polyline points="38.3,-32.14 93.46,-78.42" fill="none" stroke="url(#g-iris)" stroke-width="1.1"/></g><g transform="translate(400.000, 300.000)"><polyline points="43.3,-25 112.58,-65" fill="none" stroke="url(#g-iris)" stroke-width="1.1"/></g><g transform="translate(400.000, 300.000)"><polyline points="46.98,-17.1 118.4,-43.09" fill="none" stroke="url(#g-iris)" stroke-width="1.1"/></g><g transform="translate(400.000, 300.000)"><polyline points="49.24,-8.68 120.15,-21.19" fill="none" stroke="url(#g-iris)" stroke-width="1.1"/></g><g transform="translate(400.000, 300.000)"><circle cx="0" cy="0" r="130" fill="none" stroke="#1f1a14" stroke-width="1.5"/></g><g transform="translate(400.000, 300.000)"><circle cx="0" cy="0" r="48" fill="#0a0a0a"/></g><g transform="translate(382.000, 282.000)"><ellipse cx="0" cy="0" rx="14" ry="10" fill="rgba(255,255,255,.85)"/></g><g transform="translate(408.000, 294.000)"><circle cx="0" cy="0" r="3" fill="rgba(255,255,255,.7)"/></g><g transform="translate(290.000, 170.000)"><path d="M 0 0 Q 4 -10, 10 -22" fill="none" stroke="#1f1a14" stroke-width="2"/></g><g transform="translate(345.000, 162.000)"><path d="M 0 0 Q 4 -10, 10 -22" fill="none" stroke="#1f1a14" stroke-width="2"/></g><g transform="translate(400.000, 162.000)"><path d="M 0 0 Q -4 -10, -10 -22" fill="none" stroke="#1f1a14" stroke-width="2"/></g><g transform="translate(455.000, 162.000)"><path d="M 0 0 Q -4 -10, -10 -22" fill="none" stroke="#1f1a14" stroke-width="2"/></g><g transform="translate(510.000, 170.000)"><path d="M 0 0 Q -4 -10, -10 -22" fill="none" stroke="#1f1a14" stroke-width="2"/></g><g transform="translate(400.000, 60.000)"><text x="0" y="0" font-size="16" fill="#fef3c7" text-anchor="middle" dominant-baseline="middle">iris · pupil · catchlight</text></g><g transform="translate(400.000, 540.000)"><text x="0" y="0" font-size="13" fill="#fde68a" text-anchor="middle" dominant-baseline="middle">36 radial muscle fibers · one aperture · the camera nature evolved 40 separate times</text></g></svg>
