<svg xmlns="http://www.w3.org/2000/svg" viewBox="0 0 1300 620" width="1300" height="620" role="img" aria-label="Glyph chart" aria-describedby="glyph-desc"><desc id="glyph-desc">Glyph chart</desc><defs><linearGradient id="g-sky" x1="0%" y1="0%" x2="0%" y2="100%"><stop offset="0%" stop-color="#fef3c7" stop-opacity="1"/><stop offset="100%" stop-color="#ebe1c4" stop-opacity="1"/></linearGradient><linearGradient id="g-boiler" x1="0%" y1="0%" x2="0%" y2="100%"><stop offset="0%" stop-color="#0a0a0a" stop-opacity="1"/><stop offset="50%" stop-color="#3a3a2a" stop-opacity="1"/><stop offset="100%" stop-color="#0a0a0a" stop-opacity="1"/></linearGradient><radialGradient id="g-smoke" cx="40%" cy="40%" r="60%"><stop offset="0%" stop-color="#e2e8f0" stop-opacity="0.85"/><stop offset="60%" stop-color="#94a3b8" stop-opacity="0.5"/><stop offset="100%" stop-color="#94a3b8" stop-opacity="0"/></radialGradient><radialGradient id="g-wheel" cx="50%" cy="50%" r="50%"><stop offset="0%" stop-color="#1f1a14" stop-opacity="1"/><stop offset="100%" stop-color="#0a0a0a" stop-opacity="1"/></radialGradient><linearGradient id="g-cab" x1="0%" y1="0%" x2="0%" y2="100%"><stop offset="0%" stop-color="#dc2626" stop-opacity="1"/><stop offset="100%" stop-color="#7c2d12" stop-opacity="1"/></linearGradient></defs><rect x="0" y="0" width="1300" height="620" fill="transparent"/><rect x="0" y="0" width="1300" height="620" fill="#f5edd9"/><g transform="translate(0.000, 0.000)"><path d="M 0 0 L 1300 0 L 1300 500 L 0 500 Z" fill="url(#g-sky)" stroke="none"/></g><g transform="translate(0.000, 0.000)"><path d="M 0 380 L 80 320 L 160 350 L 240 290 L 350 320 L 480 280 L 600 310 L 740 290 L 880 320 L 1020 285 L 1170 310 L 1300 290 L 1300 460 L 0 460 Z" fill="rgba(107,138,74,.35)" stroke="none"/></g><g transform="translate(0.000, 518.000)"><path d="M 0 0 L 1300 0 L 1300 102 L 0 102 Z" fill="#a3b18a" stroke="none"/></g><g transform="translate(480.000, 130.000)"><circle cx="0" cy="0" r="36" fill="url(#g-smoke)"/></g><g transform="translate(534.000, 106.000)"><circle cx="0" cy="0" r="48" fill="url(#g-smoke)"/></g><g transform="translate(564.000, 82.000)"><circle cx="0" cy="0" r="60" fill="url(#g-smoke)"/></g><g transform="translate(602.000, 58.000)"><circle cx="0" cy="0" r="48" fill="url(#g-smoke)"/></g><g transform="translate(616.000, 34.000)"><circle cx="0" cy="0" r="60" fill="url(#g-smoke)"/></g><g transform="translate(638.000, 10.000)"><circle cx="0" cy="0" r="72" fill="url(#g-smoke)"/></g><g transform="translate(636.000, -14.000)"><circle cx="0" cy="0" r="60" fill="url(#g-smoke)"/></g><g transform="translate(340.000, 280.000)"><path d="M 0 0 L 560 0 L 560 120 L 0 120 Z" fill="url(#g-boiler)" stroke="#1f1a14" stroke-width="2"/></g><g transform="translate(340.000, 300.000)"><polyline points="0,0 560,0" fill="none" stroke="#fde68a" stroke-width="1.4"/></g><g transform="translate(340.000, 330.000)"><polyline points="0,0 560,0" fill="none" stroke="#fde68a" stroke-width="1.4"/></g><g transform="translate(340.000, 360.000)"><polyline points="0,0 560,0" fill="none" stroke="#fde68a" stroke-width="1.4"/></g><g transform="translate(340.000, 390.000)"><polyline points="0,0 560,0" fill="none" stroke="#fde68a" stroke-width="1.4"/></g><g transform="translate(330.000, 340.000)"><circle cx="0" cy="0" r="68" fill="#1f1a14" stroke="#fde68a" stroke-width="2.5"/></g><g transform="translate(330.000, 340.000)"><circle cx="0" cy="0" r="50" fill="none" stroke="#fde68a" stroke-width="1.4"/></g><g transform="translate(280.000, 340.000)"><circle cx="0" cy="0" r="18" fill="#fef3c7" stroke="#1f1a14" stroke-width="1.5"/></g><g transform="translate(280.000, 340.000)"><circle cx="0" cy="0" r="10" fill="#fde68a"/></g><g transform="translate(0.000, 0.000)"><path d="M 260 490 L 330 390 L 330 490 Z" fill="#1f1a14" stroke="#fde68a" stroke-width="1.4"/></g><g transform="translate(420.000, 215.000)"><path d="M 0 0 L 60 0 L 70 65 L -10 65 Z" fill="#1f1a14" stroke="#fde68a" stroke-width="1.5"/></g><g transform="translate(580.000, 260.000)"><ellipse cx="0" cy="0" rx="32" ry="22" fill="#1f1a14" stroke="#fde68a" stroke-width="1.5"/></g><g transform="translate(650.000, 272.000)"><path d="M 0 0 L 8 0 L 8 -22 L 0 -22 Z" fill="#fde68a" stroke="#1f1a14" stroke-width="1"/></g><g transform="translate(900.000, 190.000)"><path d="M 0 0 L 160 0 L 160 210 L 0 210 Z" fill="url(#g-cab)" stroke="#1f1a14" stroke-width="2"/></g><g transform="translate(888.000, 185.000)"><path d="M 0 0 L 184 0 L 184 10 L 0 10 Z" fill="#1f1a14" stroke="none"/></g><g transform="translate(920.000, 210.000)"><path d="M 0 0 L 60 0 L 60 55 L 0 55 Z" fill="#fef3c7" stroke="#1f1a14" stroke-width="1.4"/></g><g transform="translate(1060.000, 260.000)"><path d="M 0 0 L 180 0 L 180 140 L 0 140 Z" fill="#3a2a14" stroke="#1f1a14" stroke-width="2"/></g><g transform="translate(1070.000, 250.000)"><path d="M 0 0 L 160 0 L 160 12 L 80 5 L 0 12 Z" fill="#0a0a0a" stroke="#1f1a14" stroke-width="1"/></g><g transform="translate(0.000, 0.000)"><path d="M 460 492 L 780 492" fill="none" stroke="#fde68a" stroke-width="6"/></g><g transform="translate(320.000, 492.000)"><circle cx="0" cy="0" r="38" fill="url(#g-wheel)" stroke="#fde68a" stroke-width="2.5"/><animateTransform attributeName="transform" type="rotate" values="0;360" dur="3.500s" repeatCount="indefinite" additive="sum"/></g><g transform="translate(460.000, 492.000)"><circle cx="0" cy="0" r="60" fill="url(#g-wheel)" stroke="#fde68a" stroke-width="2.5"/><animateTransform attributeName="transform" type="rotate" values="0;360" dur="3.500s" repeatCount="indefinite" additive="sum"/></g><g transform="translate(620.000, 492.000)"><circle cx="0" cy="0" r="60" fill="url(#g-wheel)" stroke="#fde68a" stroke-width="2.5"/><animateTransform attributeName="transform" type="rotate" values="0;360" dur="3.500s" repeatCount="indefinite" additive="sum"/></g><g transform="translate(780.000, 492.000)"><circle cx="0" cy="0" r="60" fill="url(#g-wheel)" stroke="#fde68a" stroke-width="2.5"/><animateTransform attributeName="transform" type="rotate" values="0;360" dur="3.500s" repeatCount="indefinite" additive="sum"/></g><g transform="translate(320.000, 492.000)"><path d="M 8 0 L 34 0 M 5.66 5.66 L 24.04 24.04 M 0 8 L 0 34 M -5.66 5.66 L -24.04 24.04 M -8 0 L -34 0 M -5.66 -5.66 L -24.04 -24.04 M 0 -8 L 0 -34 M 5.66 -5.66 L 24.04 -24.04" fill="none" stroke="#fde68a" stroke-width="2.2"/><animateTransform attributeName="transform" type="rotate" values="0;360" dur="3.500s" repeatCount="indefinite" additive="sum"/></g><g transform="translate(460.000, 492.000)"><path d="M 8 0 L 56 0 M 5.66 5.66 L 39.6 39.6 M 0 8 L 0 56 M -5.66 5.66 L -39.6 39.6 M -8 0 L -56 0 M -5.66 -5.66 L -39.6 -39.6 M 0 -8 L 0 -56 M 5.66 -5.66 L 39.6 -39.6" fill="none" stroke="#fde68a" stroke-width="2.2"/><animateTransform attributeName="transform" type="rotate" values="0;360" dur="3.500s" repeatCount="indefinite" additive="sum"/></g><g transform="translate(620.000, 492.000)"><path d="M 8 0 L 56 0 M 5.66 5.66 L 39.6 39.6 M 0 8 L 0 56 M -5.66 5.66 L -39.6 39.6 M -8 0 L -56 0 M -5.66 -5.66 L -39.6 -39.6 M 0 -8 L 0 -56 M 5.66 -5.66 L 39.6 -39.6" fill="none" stroke="#fde68a" stroke-width="2.2"/><animateTransform attributeName="transform" type="rotate" values="0;360" dur="3.500s" repeatCount="indefinite" additive="sum"/></g><g transform="translate(780.000, 492.000)"><path d="M 8 0 L 56 0 M 5.66 5.66 L 39.6 39.6 M 0 8 L 0 56 M -5.66 5.66 L -39.6 39.6 M -8 0 L -56 0 M -5.66 -5.66 L -39.6 -39.6 M 0 -8 L 0 -56 M 5.66 -5.66 L 39.6 -39.6" fill="none" stroke="#fde68a" stroke-width="2.2"/><animateTransform attributeName="transform" type="rotate" values="0;360" dur="3.500s" repeatCount="indefinite" additive="sum"/></g><g transform="translate(320.000, 492.000)"><circle cx="0" cy="0" r="6" fill="#fde68a" stroke="#1f1a14" stroke-width="1"/></g><g transform="translate(460.000, 492.000)"><circle cx="0" cy="0" r="6" fill="#fde68a" stroke="#1f1a14" stroke-width="1"/></g><g transform="translate(620.000, 492.000)"><circle cx="0" cy="0" r="6" fill="#fde68a" stroke="#1f1a14" stroke-width="1"/></g><g transform="translate(780.000, 492.000)"><circle cx="0" cy="0" r="6" fill="#fde68a" stroke="#1f1a14" stroke-width="1"/></g><g transform="translate(0.000, 500.000)"><polyline points="0,0 1300,0" fill="none" stroke="#1f1a14" stroke-width="3.5"/></g><g transform="translate(0.000, 506.000)"><polyline points="0,0 1300,0" fill="none" stroke="#1f1a14" stroke-width="3.5"/></g><g transform="translate(650.000, 580.000)"><text x="0" y="0" font-size="14" fill="#4a3f30" text-anchor="middle" dominant-baseline="middle">coal → steam → connecting rods → 200 km/h on steel</text></g></svg>
