<svg xmlns="http://www.w3.org/2000/svg" viewBox="0 0 900 850" width="900" height="850" role="img" aria-label="Glyph chart" aria-describedby="glyph-desc"><desc id="glyph-desc">Glyph chart</desc><defs><radialGradient id="g-bg" cx="50%" cy="30%" r="85%"><stop offset="0%" stop-color="#1e1b4b" stop-opacity="1"/><stop offset="60%" stop-color="#0c1e3a" stop-opacity="1"/><stop offset="100%" stop-color="#020617" stop-opacity="1"/></radialGradient><radialGradient id="g-tip" cx="50%" cy="50%" r="50%"><stop offset="0%" stop-color="#fde68a" stop-opacity="1"/><stop offset="100%" stop-color="#fde68a" stop-opacity="0"/></radialGradient><linearGradient id="g-tower" x1="0%" y1="0%" x2="0%" y2="100%"><stop offset="0%" stop-color="#3a3a2a" stop-opacity="0.85"/><stop offset="100%" stop-color="#1f1a14" stop-opacity="0.85"/></linearGradient><linearGradient id="g-horizon" x1="0%" y1="0%" x2="0%" y2="100%"><stop offset="0%" stop-color="#0c1e3a" stop-opacity="0.85"/><stop offset="100%" stop-color="#020617" stop-opacity="1"/></linearGradient></defs><rect x="0" y="0" width="900" height="850" fill="transparent"/><rect x="0" y="0" width="900" height="850" fill="#020617"/><g transform="translate(0.000, 0.000)"><path d="M 0 0 L 900 0 L 900 850 L 0 850 Z" fill="url(#g-bg)" stroke="none"/></g><g transform="translate(0.000, 0.000)"><circle cx="0.627" cy="378.424" r="0.949" fill="#ffffff"/><circle cx="575.955" cy="3.943" r="1.116" fill="#cbd5e1"/><circle cx="867.825" cy="201.265" r="0.605" fill="#ffffff"/><circle cx="43.997" cy="461.709" r="0.76" fill="#cbd5e1"/><circle cx="44.208" cy="57.457" r="0.745" fill="#ffffff"/><circle cx="776.78" cy="104.512" r="1.093" fill="#cbd5e1"/><circle cx="461.307" cy="574.147" r="0.647" fill="#ffffff"/><circle cx="186.818" cy="526.235" r="0.67" fill="#cbd5e1"/><circle cx="852.807" cy="480.478" r="0.574" fill="#ffffff"/><circle cx="537.847" cy="66.748" r="0.58" fill="#cbd5e1"/><circle cx="21.196" cy="508.119" r="0.894" fill="#ffffff"/><circle cx="865.512" cy="153.702" r="0.838" fill="#cbd5e1"/><circle cx="327.045" cy="519.112" r="0.755" fill="#ffffff"/><circle cx="812.275" cy="531.944" r="0.78" fill="#cbd5e1"/><circle cx="527.426" cy="114.687" r="0.685" fill="#ffffff"/><circle cx="862.416" cy="131.804" r="1.163" fill="#cbd5e1"/><circle cx="838.662" cy="113.865" r="0.922" fill="#ffffff"/><circle cx="559.475" cy="69.975" r="1.167" fill="#cbd5e1"/><circle cx="826.796" cy="439.154" r="0.923" fill="#ffffff"/><circle cx="694.37" cy="104.462" r="1.033" fill="#cbd5e1"/><circle cx="799.917" cy="48.549" r="0.958" fill="#ffffff"/><circle cx="342.264" cy="76.908" r="0.754" fill="#cbd5e1"/><circle cx="893.445" cy="244.093" r="0.987" fill="#ffffff"/><circle cx="140.668" cy="374.292" r="0.843" fill="#cbd5e1"/><circle cx="854.542" cy="534.008" r="1.127" fill="#ffffff"/><circle cx="61.021" cy="484.2" r="0.558" fill="#cbd5e1"/><circle cx="825.088" cy="75.778" r="1" fill="#ffffff"/><circle cx="643.44" cy="309.697" r="1.193" fill="#cbd5e1"/><circle cx="260.8" cy="507.077" r="0.525" fill="#ffffff"/><circle cx="196.994" cy="403.412" r="1.134" fill="#cbd5e1"/><circle cx="690.403" cy="228.723" r="1.057" fill="#ffffff"/><circle cx="380.989" cy="81.198" r="0.769" fill="#cbd5e1"/><circle cx="258.677" cy="579.433" r="0.563" fill="#ffffff"/><circle cx="548.321" cy="522.259" r="0.983" fill="#cbd5e1"/><circle cx="678.956" cy="246.768" r="1.032" fill="#ffffff"/><circle cx="288.659" cy="29.248" r="1.051" fill="#cbd5e1"/><circle cx="18.802" cy="256.093" r="0.657" fill="#ffffff"/><circle cx="808.853" cy="233.012" r="1.001" fill="#cbd5e1"/><circle cx="508.754" cy="441.283" r="0.692" fill="#ffffff"/><circle cx="574.25" cy="336.169" r="0.924" fill="#cbd5e1"/><circle cx="253.762" cy="228.015" r="0.739" fill="#ffffff"/><circle cx="266.698" cy="115.886" r="0.901" fill="#cbd5e1"/><circle cx="421.098" cy="205.854" r="0.829" fill="#ffffff"/><circle cx="801.475" cy="405.54" r="0.856" fill="#cbd5e1"/><circle cx="173.425" cy="341.636" r="0.602" fill="#ffffff"/><circle cx="514.325" cy="312.634" r="0.702" fill="#cbd5e1"/><circle cx="263.387" cy="372.36" r="1.014" fill="#ffffff"/><circle cx="262.494" cy="440.575" r="1.068" fill="#cbd5e1"/><circle cx="540.029" cy="97.225" r="0.951" fill="#ffffff"/><circle cx="321.738" cy="155.195" r="0.941" fill="#cbd5e1"/><circle cx="229.286" cy="363.249" r="0.918" fill="#ffffff"/><circle cx="413.95" cy="578.839" r="1.129" fill="#cbd5e1"/><circle cx="799.745" cy="538.756" r="0.519" fill="#ffffff"/><circle cx="368.037" cy="262.299" r="1.02" fill="#cbd5e1"/><circle cx="284.889" cy="511.398" r="0.869" fill="#ffffff"/><circle cx="448.369" cy="16.66" r="0.908" fill="#cbd5e1"/><circle cx="80.852" cy="258.175" r="0.584" fill="#ffffff"/><circle cx="221.116" cy="250.969" r="0.905" fill="#cbd5e1"/><circle cx="487.749" cy="97.351" r="1.124" fill="#ffffff"/><circle cx="206.428" cy="382.74" r="1.093" fill="#cbd5e1"/><circle cx="833.034" cy="186.598" r="0.708" fill="#ffffff"/><circle cx="708.914" cy="132.415" r="0.893" fill="#cbd5e1"/><circle cx="54.285" cy="317.441" r="0.688" fill="#ffffff"/><circle cx="673.81" cy="259.145" r="1.12" fill="#cbd5e1"/><circle cx="114.761" cy="95.488" r="0.985" fill="#ffffff"/><circle cx="319.301" cy="312.976" r="0.5" fill="#cbd5e1"/><circle cx="281.584" cy="355.485" r="1.005" fill="#ffffff"/><circle cx="171.391" cy="287.305" r="0.774" fill="#cbd5e1"/><circle cx="741.136" cy="235.402" r="0.964" fill="#ffffff"/><circle cx="118.134" cy="16.341" r="1.023" fill="#cbd5e1"/><circle cx="710.383" cy="7.692" r="0.517" fill="#ffffff"/><circle cx="410.183" cy="543.52" r="0.899" fill="#cbd5e1"/><circle cx="366.26" cy="103.314" r="0.937" fill="#ffffff"/><circle cx="208.482" cy="474.799" r="0.781" fill="#cbd5e1"/><circle cx="57.588" cy="405.385" r="1.158" fill="#ffffff"/><circle cx="884.242" cy="483.237" r="1.149" fill="#cbd5e1"/><circle cx="351.399" cy="54.512" r="0.831" fill="#ffffff"/><circle cx="342.064" cy="232.088" r="1.025" fill="#cbd5e1"/><circle cx="147.496" cy="509.818" r="0.76" fill="#ffffff"/><circle cx="749.494" cy="410.225" r="0.93" fill="#cbd5e1"/><circle cx="290.204" cy="551.908" r="0.511" fill="#ffffff"/><circle cx="731.979" cy="155.726" r="0.963" fill="#cbd5e1"/><circle cx="221.504" cy="159.389" r="1.089" fill="#ffffff"/><circle cx="135.738" cy="145.893" r="1.162" fill="#cbd5e1"/><circle cx="812.822" cy="150.265" r="0.935" fill="#ffffff"/><circle cx="566.32" cy="147.669" r="0.555" fill="#cbd5e1"/><circle cx="475.184" cy="122.194" r="0.707" fill="#ffffff"/><circle cx="653.55" cy="463.125" r="0.712" fill="#cbd5e1"/><circle cx="133.714" cy="386.788" r="0.638" fill="#ffffff"/><circle cx="371.302" cy="327.294" r="0.955" fill="#cbd5e1"/></g><g transform="translate(0.000, 680.000)"><path d="M 0 100 L 30 100 L 30 60 L 60 60 L 60 90 L 100 90 L 100 50 L 140 50 L 140 80 L 180 80 L 180 70 L 220 70 L 220 95 L 260 95 L 260 60 L 300 60 L 300 75 L 340 75 L 340 90 L 380 90 L 380 100 L 0 100 Z" fill="url(#g-horizon)" stroke="none"/></g><g transform="translate(120.000, 690.000)"><circle cx="0" cy="0" r="2.4" fill="#fde68a" stroke="#fbbf24" stroke-width="0.6"/></g><g transform="translate(280.000, 690.000)"><circle cx="0" cy="0" r="2.4" fill="#fde68a" stroke="#fbbf24" stroke-width="0.6"/></g><g transform="translate(460.000, 690.000)"><circle cx="0" cy="0" r="2.4" fill="#fde68a" stroke="#fbbf24" stroke-width="0.6"/></g><g transform="translate(660.000, 690.000)"><circle cx="0" cy="0" r="2.4" fill="#fde68a" stroke="#fbbf24" stroke-width="0.6"/></g><g transform="translate(450.000, 180.000)"><ellipse cx="0" cy="0" rx="50" ry="25" fill="none" stroke="#fde68a" stroke-width="1.8" opacity="0.78"/><animateTransform attributeName="transform" type="scale" values="1;1.060;1" keyTimes="0;0.5;1" calcMode="spline" keySplines="0.42 0 0.58 1;0.42 0 0.58 1" dur="3.180s" repeatCount="indefinite" additive="sum"/></g><g transform="translate(450.000, 180.000)"><ellipse cx="0" cy="0" rx="100" ry="50" fill="none" stroke="#fde68a" stroke-width="1.8" opacity="0.71"/><animateTransform attributeName="transform" type="scale" values="1;1.060;1" keyTimes="0;0.5;1" calcMode="spline" keySplines="0.42 0 0.58 1;0.42 0 0.58 1" dur="3.360s" repeatCount="indefinite" additive="sum"/></g><g transform="translate(450.000, 180.000)"><ellipse cx="0" cy="0" rx="150" ry="75" fill="none" stroke="#fde68a" stroke-width="1.8" opacity="0.6399999999999999"/><animateTransform attributeName="transform" type="scale" values="1;1.060;1" keyTimes="0;0.5;1" calcMode="spline" keySplines="0.42 0 0.58 1;0.42 0 0.58 1" dur="3.540s" repeatCount="indefinite" additive="sum"/></g><g transform="translate(450.000, 180.000)"><ellipse cx="0" cy="0" rx="200" ry="100" fill="none" stroke="#fde68a" stroke-width="1.8" opacity="0.57"/><animateTransform attributeName="transform" type="scale" values="1;1.060;1" keyTimes="0;0.5;1" calcMode="spline" keySplines="0.42 0 0.58 1;0.42 0 0.58 1" dur="3.720s" repeatCount="indefinite" additive="sum"/></g><g transform="translate(450.000, 180.000)"><ellipse cx="0" cy="0" rx="250" ry="125" fill="none" stroke="#fde68a" stroke-width="1.8" opacity="0.49999999999999994"/><animateTransform attributeName="transform" type="scale" values="1;1.060;1" keyTimes="0;0.5;1" calcMode="spline" keySplines="0.42 0 0.58 1;0.42 0 0.58 1" dur="3.900s" repeatCount="indefinite" additive="sum"/></g><g transform="translate(450.000, 180.000)"><ellipse cx="0" cy="0" rx="300" ry="150" fill="none" stroke="#fde68a" stroke-width="1.8" opacity="0.42999999999999994"/><animateTransform attributeName="transform" type="scale" values="1;1.060;1" keyTimes="0;0.5;1" calcMode="spline" keySplines="0.42 0 0.58 1;0.42 0 0.58 1" dur="4.080s" repeatCount="indefinite" additive="sum"/></g><g transform="translate(450.000, 180.000)"><ellipse cx="0" cy="0" rx="350" ry="175" fill="none" stroke="#fde68a" stroke-width="1.8" opacity="0.35999999999999993"/><animateTransform attributeName="transform" type="scale" values="1;1.060;1" keyTimes="0;0.5;1" calcMode="spline" keySplines="0.42 0 0.58 1;0.42 0 0.58 1" dur="4.260s" repeatCount="indefinite" additive="sum"/></g><g transform="translate(450.000, 180.000)"><ellipse cx="0" cy="0" rx="400" ry="200" fill="none" stroke="#fde68a" stroke-width="1.8" opacity="0.2899999999999999"/><animateTransform attributeName="transform" type="scale" values="1;1.060;1" keyTimes="0;0.5;1" calcMode="spline" keySplines="0.42 0 0.58 1;0.42 0 0.58 1" dur="4.440s" repeatCount="indefinite" additive="sum"/></g><g transform="translate(450.000, 180.000)"><ellipse cx="0" cy="0" rx="450" ry="225" fill="none" stroke="#fde68a" stroke-width="1.8" opacity="0.21999999999999986"/><animateTransform attributeName="transform" type="scale" values="1;1.060;1" keyTimes="0;0.5;1" calcMode="spline" keySplines="0.42 0 0.58 1;0.42 0 0.58 1" dur="4.620s" repeatCount="indefinite" additive="sum"/></g><g transform="translate(450.000, 180.000)"><circle cx="0" cy="0" r="60" fill="url(#g-tip)"/></g><g transform="translate(0.000, 0.000)"><path d="M 370 720 L 530 720 L 462 280 L 438 280 Z" fill="url(#g-tower)" stroke="#fde68a" stroke-width="1.5"/></g><g transform="translate(0.000, 0.000)"><polyline points="370,720 524.33,683.33" fill="none" stroke="#fde68a" stroke-width="0.8"/></g><g transform="translate(0.000, 0.000)"><polyline points="530,720 375.67,683.33" fill="none" stroke="#fde68a" stroke-width="0.8"/></g><g transform="translate(0.000, 0.000)"><polyline points="375.67,683.33 518.67,646.67" fill="none" stroke="#fde68a" stroke-width="0.8"/></g><g transform="translate(0.000, 0.000)"><polyline points="524.33,683.33 381.33,646.67" fill="none" stroke="#fde68a" stroke-width="0.8"/></g><g transform="translate(0.000, 0.000)"><polyline points="381.33,646.67 513,610" fill="none" stroke="#fde68a" stroke-width="0.8"/></g><g transform="translate(0.000, 0.000)"><polyline points="518.67,646.67 387,610" fill="none" stroke="#fde68a" stroke-width="0.8"/></g><g transform="translate(0.000, 0.000)"><polyline points="387,610 507.33,573.33" fill="none" stroke="#fde68a" stroke-width="0.8"/></g><g transform="translate(0.000, 0.000)"><polyline points="513,610 392.67,573.33" fill="none" stroke="#fde68a" stroke-width="0.8"/></g><g transform="translate(0.000, 0.000)"><polyline points="392.67,573.33 501.67,536.67" fill="none" stroke="#fde68a" stroke-width="0.8"/></g><g transform="translate(0.000, 0.000)"><polyline points="507.33,573.33 398.33,536.67" fill="none" stroke="#fde68a" stroke-width="0.8"/></g><g transform="translate(0.000, 0.000)"><polyline points="398.33,536.67 496,500" fill="none" stroke="#fde68a" stroke-width="0.8"/></g><g transform="translate(0.000, 0.000)"><polyline points="501.67,536.67 404,500" fill="none" stroke="#fde68a" stroke-width="0.8"/></g><g transform="translate(0.000, 0.000)"><polyline points="404,500 490.33,463.33" fill="none" stroke="#fde68a" stroke-width="0.8"/></g><g transform="translate(0.000, 0.000)"><polyline points="496,500 409.67,463.33" fill="none" stroke="#fde68a" stroke-width="0.8"/></g><g transform="translate(0.000, 0.000)"><polyline points="409.67,463.33 484.67,426.67" fill="none" stroke="#fde68a" stroke-width="0.8"/></g><g transform="translate(0.000, 0.000)"><polyline points="490.33,463.33 415.33,426.67" fill="none" stroke="#fde68a" stroke-width="0.8"/></g><g transform="translate(0.000, 0.000)"><polyline points="415.33,426.67 479,390" fill="none" stroke="#fde68a" stroke-width="0.8"/></g><g transform="translate(0.000, 0.000)"><polyline points="484.67,426.67 421,390" fill="none" stroke="#fde68a" stroke-width="0.8"/></g><g transform="translate(0.000, 0.000)"><polyline points="421,390 473.33,353.33" fill="none" stroke="#fde68a" stroke-width="0.8"/></g><g transform="translate(0.000, 0.000)"><polyline points="479,390 426.67,353.33" fill="none" stroke="#fde68a" stroke-width="0.8"/></g><g transform="translate(0.000, 0.000)"><polyline points="426.67,353.33 467.67,316.67" fill="none" stroke="#fde68a" stroke-width="0.8"/></g><g transform="translate(0.000, 0.000)"><polyline points="473.33,353.33 432.33,316.67" fill="none" stroke="#fde68a" stroke-width="0.8"/></g><g transform="translate(0.000, 0.000)"><polyline points="432.33,316.67 462,280" fill="none" stroke="#fde68a" stroke-width="0.8"/></g><g transform="translate(0.000, 0.000)"><polyline points="467.67,316.67 438,280" fill="none" stroke="#fde68a" stroke-width="0.8"/></g><g transform="translate(0.000, 0.000)"><path d="M 450 280 L 450 180" fill="none" stroke="#fde68a" stroke-width="2.5"/></g><g transform="translate(450.000, 180.000)"><circle cx="0" cy="0" r="7" fill="#fde68a" stroke="#fbbf24" stroke-width="1"/></g><g transform="translate(450.000, 90.000)"><text x="0" y="0" font-size="16" fill="#fde68a" text-anchor="middle" dominant-baseline="middle">broadcasting · 88 — 108 MHz</text></g><g transform="translate(450.000, 815.000)"><text x="0" y="0" font-size="13" fill="#94a3b8" text-anchor="middle" dominant-baseline="middle">electromagnetic waves · speed of light · the city listens</text></g></svg>
